<?xml version="1.0" encoding="utf-8" standalone="no"?>
<!DOCTYPE svg PUBLIC "-//W3C//DTD SVG 1.1//EN"
  "http://www.w3.org/Graphics/SVG/1.1/DTD/svg11.dtd">
<svg xmlns:xlink="http://www.w3.org/1999/xlink" width="460.8pt" height="345.6pt" viewBox="0 0 460.8 345.6" xmlns="http://www.w3.org/2000/svg" version="1.1">
 <metadata>
  <rdf:RDF xmlns:dc="http://purl.org/dc/elements/1.1/" xmlns:cc="http://creativecommons.org/ns#" xmlns:rdf="http://www.w3.org/1999/02/22-rdf-syntax-ns#">
   <cc:Work>
    <dc:type rdf:resource="http://purl.org/dc/dcmitype/StillImage"/>
    <dc:date>2022-08-16T23:18:32.921229</dc:date>
    <dc:format>image/svg+xml</dc:format>
    <dc:creator>
     <cc:Agent>
      <dc:title>Matplotlib v3.5.2, https://matplotlib.org/</dc:title>
     </cc:Agent>
    </dc:creator>
   </cc:Work>
  </rdf:RDF>
 </metadata>
 <defs>
  <style type="text/css">*{stroke-linejoin: round; stroke-linecap: butt}</style>
 </defs>
 <g id="figure_1">
  <g id="patch_1">
   <path d="M 0 345.6 
L 460.8 345.6 
L 460.8 0 
L 0 0 
z
" style="fill: #ffffff"/>
  </g>
  <g id="patch_2">
   <path d="M 103.104 307.584 
L 369.216 307.584 
L 369.216 41.472 
L 103.104 41.472 
z
" style="fill: #ffffff"/>
  </g>
  <g id="pane3d_1">
   <g id="patch_3">
    <path d="M 121.025472 230.864509 
L 230.117775 166.639105 
L 229.708099 60.557879 
L 115.568517 119.109731 
" style="fill: #f2f2f2; opacity: 0.5; stroke: #f2f2f2; stroke-linejoin: miter"/>
   </g>
  </g>
  <g id="pane3d_2">
   <g id="patch_4">
    <path d="M 230.117775 166.639105 
L 357.020026 219.864878 
L 362.339969 109.054252 
L 229.708099 60.557879 
" style="fill: #e6e6e6; opacity: 0.5; stroke: #e6e6e6; stroke-linejoin: miter"/>
   </g>
  </g>
  <g id="pane3d_3">
   <g id="patch_5">
    <path d="M 121.025472 230.864509 
L 250.868543 292.99827 
L 357.020026 219.864878 
L 230.117775 166.639105 
" style="fill: #ececec; opacity: 0.5; stroke: #ececec; stroke-linejoin: miter"/>
   </g>
  </g>
  <g id="axis3d_1">
   <g id="line2d_1">
    <path d="M 121.025472 230.864509 
L 250.868543 292.99827 
" style="fill: none; stroke: #000000; stroke-width: 0.8; stroke-linecap: square"/>
   </g>
   <g id="text_1">
    <!-- Input Power (uW) -->
    <g transform="translate(117.8633 285.966332)rotate(-334.427502)scale(0.1 -0.1)">
     <defs>
      <path id="DejaVuSans-49" d="M 628 4666 
L 1259 4666 
L 1259 0 
L 628 0 
L 628 4666 
z
" transform="scale(0.015625)"/>
      <path id="DejaVuSans-6e" d="M 3513 2113 
L 3513 0 
L 2938 0 
L 2938 2094 
Q 2938 2591 2744 2837 
Q 2550 3084 2163 3084 
Q 1697 3084 1428 2787 
Q 1159 2491 1159 1978 
L 1159 0 
L 581 0 
L 581 3500 
L 1159 3500 
L 1159 2956 
Q 1366 3272 1645 3428 
Q 1925 3584 2291 3584 
Q 2894 3584 3203 3211 
Q 3513 2838 3513 2113 
z
" transform="scale(0.015625)"/>
      <path id="DejaVuSans-70" d="M 1159 525 
L 1159 -1331 
L 581 -1331 
L 581 3500 
L 1159 3500 
L 1159 2969 
Q 1341 3281 1617 3432 
Q 1894 3584 2278 3584 
Q 2916 3584 3314 3078 
Q 3713 2572 3713 1747 
Q 3713 922 3314 415 
Q 2916 -91 2278 -91 
Q 1894 -91 1617 61 
Q 1341 213 1159 525 
z
M 3116 1747 
Q 3116 2381 2855 2742 
Q 2594 3103 2138 3103 
Q 1681 3103 1420 2742 
Q 1159 2381 1159 1747 
Q 1159 1113 1420 752 
Q 1681 391 2138 391 
Q 2594 391 2855 752 
Q 3116 1113 3116 1747 
z
" transform="scale(0.015625)"/>
      <path id="DejaVuSans-75" d="M 544 1381 
L 544 3500 
L 1119 3500 
L 1119 1403 
Q 1119 906 1312 657 
Q 1506 409 1894 409 
Q 2359 409 2629 706 
Q 2900 1003 2900 1516 
L 2900 3500 
L 3475 3500 
L 3475 0 
L 2900 0 
L 2900 538 
Q 2691 219 2414 64 
Q 2138 -91 1772 -91 
Q 1169 -91 856 284 
Q 544 659 544 1381 
z
M 1991 3584 
L 1991 3584 
z
" transform="scale(0.015625)"/>
      <path id="DejaVuSans-74" d="M 1172 4494 
L 1172 3500 
L 2356 3500 
L 2356 3053 
L 1172 3053 
L 1172 1153 
Q 1172 725 1289 603 
Q 1406 481 1766 481 
L 2356 481 
L 2356 0 
L 1766 0 
Q 1100 0 847 248 
Q 594 497 594 1153 
L 594 3053 
L 172 3053 
L 172 3500 
L 594 3500 
L 594 4494 
L 1172 4494 
z
" transform="scale(0.015625)"/>
      <path id="DejaVuSans-20" transform="scale(0.015625)"/>
      <path id="DejaVuSans-50" d="M 1259 4147 
L 1259 2394 
L 2053 2394 
Q 2494 2394 2734 2622 
Q 2975 2850 2975 3272 
Q 2975 3691 2734 3919 
Q 2494 4147 2053 4147 
L 1259 4147 
z
M 628 4666 
L 2053 4666 
Q 2838 4666 3239 4311 
Q 3641 3956 3641 3272 
Q 3641 2581 3239 2228 
Q 2838 1875 2053 1875 
L 1259 1875 
L 1259 0 
L 628 0 
L 628 4666 
z
" transform="scale(0.015625)"/>
      <path id="DejaVuSans-6f" d="M 1959 3097 
Q 1497 3097 1228 2736 
Q 959 2375 959 1747 
Q 959 1119 1226 758 
Q 1494 397 1959 397 
Q 2419 397 2687 759 
Q 2956 1122 2956 1747 
Q 2956 2369 2687 2733 
Q 2419 3097 1959 3097 
z
M 1959 3584 
Q 2709 3584 3137 3096 
Q 3566 2609 3566 1747 
Q 3566 888 3137 398 
Q 2709 -91 1959 -91 
Q 1206 -91 779 398 
Q 353 888 353 1747 
Q 353 2609 779 3096 
Q 1206 3584 1959 3584 
z
" transform="scale(0.015625)"/>
      <path id="DejaVuSans-77" d="M 269 3500 
L 844 3500 
L 1563 769 
L 2278 3500 
L 2956 3500 
L 3675 769 
L 4391 3500 
L 4966 3500 
L 4050 0 
L 3372 0 
L 2619 2869 
L 1863 0 
L 1184 0 
L 269 3500 
z
" transform="scale(0.015625)"/>
      <path id="DejaVuSans-65" d="M 3597 1894 
L 3597 1613 
L 953 1613 
Q 991 1019 1311 708 
Q 1631 397 2203 397 
Q 2534 397 2845 478 
Q 3156 559 3463 722 
L 3463 178 
Q 3153 47 2828 -22 
Q 2503 -91 2169 -91 
Q 1331 -91 842 396 
Q 353 884 353 1716 
Q 353 2575 817 3079 
Q 1281 3584 2069 3584 
Q 2775 3584 3186 3129 
Q 3597 2675 3597 1894 
z
M 3022 2063 
Q 3016 2534 2758 2815 
Q 2500 3097 2075 3097 
Q 1594 3097 1305 2825 
Q 1016 2553 972 2059 
L 3022 2063 
z
" transform="scale(0.015625)"/>
      <path id="DejaVuSans-72" d="M 2631 2963 
Q 2534 3019 2420 3045 
Q 2306 3072 2169 3072 
Q 1681 3072 1420 2755 
Q 1159 2438 1159 1844 
L 1159 0 
L 581 0 
L 581 3500 
L 1159 3500 
L 1159 2956 
Q 1341 3275 1631 3429 
Q 1922 3584 2338 3584 
Q 2397 3584 2469 3576 
Q 2541 3569 2628 3553 
L 2631 2963 
z
" transform="scale(0.015625)"/>
      <path id="DejaVuSans-28" d="M 1984 4856 
Q 1566 4138 1362 3434 
Q 1159 2731 1159 2009 
Q 1159 1288 1364 580 
Q 1569 -128 1984 -844 
L 1484 -844 
Q 1016 -109 783 600 
Q 550 1309 550 2009 
Q 550 2706 781 3412 
Q 1013 4119 1484 4856 
L 1984 4856 
z
" transform="scale(0.015625)"/>
      <path id="DejaVuSans-57" d="M 213 4666 
L 850 4666 
L 1831 722 
L 2809 4666 
L 3519 4666 
L 4500 722 
L 5478 4666 
L 6119 4666 
L 4947 0 
L 4153 0 
L 3169 4050 
L 2175 0 
L 1381 0 
L 213 4666 
z
" transform="scale(0.015625)"/>
      <path id="DejaVuSans-29" d="M 513 4856 
L 1013 4856 
Q 1481 4119 1714 3412 
Q 1947 2706 1947 2009 
Q 1947 1309 1714 600 
Q 1481 -109 1013 -844 
L 513 -844 
Q 928 -128 1133 580 
Q 1338 1288 1338 2009 
Q 1338 2731 1133 3434 
Q 928 4138 513 4856 
z
" transform="scale(0.015625)"/>
     </defs>
     <use xlink:href="#DejaVuSans-49"/>
     <use xlink:href="#DejaVuSans-6e" x="29.492188"/>
     <use xlink:href="#DejaVuSans-70" x="92.871094"/>
     <use xlink:href="#DejaVuSans-75" x="156.347656"/>
     <use xlink:href="#DejaVuSans-74" x="219.726562"/>
     <use xlink:href="#DejaVuSans-20" x="258.935547"/>
     <use xlink:href="#DejaVuSans-50" x="290.722656"/>
     <use xlink:href="#DejaVuSans-6f" x="347.400391"/>
     <use xlink:href="#DejaVuSans-77" x="408.582031"/>
     <use xlink:href="#DejaVuSans-65" x="490.369141"/>
     <use xlink:href="#DejaVuSans-72" x="551.892578"/>
     <use xlink:href="#DejaVuSans-20" x="593.005859"/>
     <use xlink:href="#DejaVuSans-28" x="624.792969"/>
     <use xlink:href="#DejaVuSans-75" x="663.806641"/>
     <use xlink:href="#DejaVuSans-57" x="727.185547"/>
     <use xlink:href="#DejaVuSans-29" x="826.0625"/>
    </g>
   </g>
   <g id="Line3DCollection_1">
    <path d="M 127.692167 234.05472 
L 236.664579 169.384988 
L 236.532719 63.053277 
" style="fill: none; stroke: #b0b0b0; stroke-width: 0.8"/>
    <path d="M 149.721755 244.596532 
L 258.273958 178.448467 
L 259.072791 71.294974 
" style="fill: none; stroke: #b0b0b0; stroke-width: 0.8"/>
    <path d="M 172.277311 255.390034 
L 280.361109 187.712335 
L 282.132957 79.726842 
" style="fill: none; stroke: #b0b0b0; stroke-width: 0.8"/>
    <path d="M 195.377896 266.44435 
L 302.942052 197.18331 
L 305.731428 88.35554 
" style="fill: none; stroke: #b0b0b0; stroke-width: 0.8"/>
    <path d="M 219.04351 277.769048 
L 326.033534 206.868418 
L 329.887276 97.18804 
" style="fill: none; stroke: #b0b0b0; stroke-width: 0.8"/>
    <path d="M 243.295138 289.374171 
L 349.653068 216.775003 
L 354.620483 106.231649 
" style="fill: none; stroke: #b0b0b0; stroke-width: 0.8"/>
   </g>
   <g id="xtick_1">
    <g id="line2d_2">
     <path d="M 128.631372 233.497349 
L 125.810235 235.171553 
" style="fill: none; stroke: #000000; stroke-width: 0.8; stroke-linecap: square"/>
    </g>
    <g id="text_2">
     <!-- 0 -->
     <g transform="translate(115.147493 256.364209)scale(0.1 -0.1)">
      <defs>
       <path id="DejaVuSans-30" d="M 2034 4250 
Q 1547 4250 1301 3770 
Q 1056 3291 1056 2328 
Q 1056 1369 1301 889 
Q 1547 409 2034 409 
Q 2525 409 2770 889 
Q 3016 1369 3016 2328 
Q 3016 3291 2770 3770 
Q 2525 4250 2034 4250 
z
M 2034 4750 
Q 2819 4750 3233 4129 
Q 3647 3509 3647 2328 
Q 3647 1150 3233 529 
Q 2819 -91 2034 -91 
Q 1250 -91 836 529 
Q 422 1150 422 2328 
Q 422 3509 836 4129 
Q 1250 4750 2034 4750 
z
" transform="scale(0.015625)"/>
      </defs>
      <use xlink:href="#DejaVuSans-30"/>
     </g>
    </g>
   </g>
   <g id="xtick_2">
    <g id="line2d_3">
     <path d="M 150.658131 244.025936 
L 147.845453 245.739888 
" style="fill: none; stroke: #000000; stroke-width: 0.8; stroke-linecap: square"/>
    </g>
    <g id="text_3">
     <!-- 1000 -->
     <g transform="translate(127.585462 267.110163)scale(0.1 -0.1)">
      <defs>
       <path id="DejaVuSans-31" d="M 794 531 
L 1825 531 
L 1825 4091 
L 703 3866 
L 703 4441 
L 1819 4666 
L 2450 4666 
L 2450 531 
L 3481 531 
L 3481 0 
L 794 0 
L 794 531 
z
" transform="scale(0.015625)"/>
      </defs>
      <use xlink:href="#DejaVuSans-31"/>
      <use xlink:href="#DejaVuSans-30" x="63.623047"/>
      <use xlink:href="#DejaVuSans-30" x="127.246094"/>
      <use xlink:href="#DejaVuSans-30" x="190.869141"/>
     </g>
    </g>
   </g>
   <g id="xtick_3">
    <g id="line2d_4">
     <path d="M 173.210453 254.805738 
L 170.407444 256.560869 
" style="fill: none; stroke: #000000; stroke-width: 0.8; stroke-linecap: square"/>
    </g>
    <g id="text_4">
     <!-- 2000 -->
     <g transform="translate(150.09352 278.113423)scale(0.1 -0.1)">
      <defs>
       <path id="DejaVuSans-32" d="M 1228 531 
L 3431 531 
L 3431 0 
L 469 0 
L 469 531 
Q 828 903 1448 1529 
Q 2069 2156 2228 2338 
Q 2531 2678 2651 2914 
Q 2772 3150 2772 3378 
Q 2772 3750 2511 3984 
Q 2250 4219 1831 4219 
Q 1534 4219 1204 4116 
Q 875 4013 500 3803 
L 500 4441 
Q 881 4594 1212 4672 
Q 1544 4750 1819 4750 
Q 2544 4750 2975 4387 
Q 3406 4025 3406 3419 
Q 3406 3131 3298 2873 
Q 3191 2616 2906 2266 
Q 2828 2175 2409 1742 
Q 1991 1309 1228 531 
z
" transform="scale(0.015625)"/>
      </defs>
      <use xlink:href="#DejaVuSans-32"/>
      <use xlink:href="#DejaVuSans-30" x="63.623047"/>
      <use xlink:href="#DejaVuSans-30" x="127.246094"/>
      <use xlink:href="#DejaVuSans-30" x="190.869141"/>
     </g>
    </g>
   </g>
   <g id="xtick_4">
    <g id="line2d_5">
     <path d="M 196.307375 265.845854 
L 193.515328 267.643666 
" style="fill: none; stroke: #000000; stroke-width: 0.8; stroke-linecap: square"/>
    </g>
    <g id="text_5">
     <!-- 3000 -->
     <g transform="translate(173.147053 289.383342)scale(0.1 -0.1)">
      <defs>
       <path id="DejaVuSans-33" d="M 2597 2516 
Q 3050 2419 3304 2112 
Q 3559 1806 3559 1356 
Q 3559 666 3084 287 
Q 2609 -91 1734 -91 
Q 1441 -91 1130 -33 
Q 819 25 488 141 
L 488 750 
Q 750 597 1062 519 
Q 1375 441 1716 441 
Q 2309 441 2620 675 
Q 2931 909 2931 1356 
Q 2931 1769 2642 2001 
Q 2353 2234 1838 2234 
L 1294 2234 
L 1294 2753 
L 1863 2753 
Q 2328 2753 2575 2939 
Q 2822 3125 2822 3475 
Q 2822 3834 2567 4026 
Q 2313 4219 1838 4219 
Q 1578 4219 1281 4162 
Q 984 4106 628 3988 
L 628 4550 
Q 988 4650 1302 4700 
Q 1616 4750 1894 4750 
Q 2613 4750 3031 4423 
Q 3450 4097 3450 3541 
Q 3450 3153 3228 2886 
Q 3006 2619 2597 2516 
z
" transform="scale(0.015625)"/>
      </defs>
      <use xlink:href="#DejaVuSans-33"/>
      <use xlink:href="#DejaVuSans-30" x="63.623047"/>
      <use xlink:href="#DejaVuSans-30" x="127.246094"/>
      <use xlink:href="#DejaVuSans-30" x="190.869141"/>
     </g>
    </g>
   </g>
   <g id="xtick_5">
    <g id="line2d_6">
     <path d="M 219.968865 277.155829 
L 217.189159 278.997897 
" style="fill: none; stroke: #000000; stroke-width: 0.8; stroke-linecap: square"/>
    </g>
    <g id="text_6">
     <!-- 4000 -->
     <g transform="translate(196.766131 300.929734)scale(0.1 -0.1)">
      <defs>
       <path id="DejaVuSans-34" d="M 2419 4116 
L 825 1625 
L 2419 1625 
L 2419 4116 
z
M 2253 4666 
L 3047 4666 
L 3047 1625 
L 3713 1625 
L 3713 1100 
L 3047 1100 
L 3047 0 
L 2419 0 
L 2419 1100 
L 313 1100 
L 313 1709 
L 2253 4666 
z
" transform="scale(0.015625)"/>
      </defs>
      <use xlink:href="#DejaVuSans-34"/>
      <use xlink:href="#DejaVuSans-30" x="63.623047"/>
      <use xlink:href="#DejaVuSans-30" x="127.246094"/>
      <use xlink:href="#DejaVuSans-30" x="190.869141"/>
     </g>
    </g>
   </g>
   <g id="xtick_6">
    <g id="line2d_7">
     <path d="M 244.21588 288.745679 
L 241.449986 290.633659 
" style="fill: none; stroke: #000000; stroke-width: 0.8; stroke-linecap: square"/>
    </g>
    <g id="text_7">
     <!-- 5000 -->
     <g transform="translate(220.971824 312.762897)scale(0.1 -0.1)">
      <defs>
       <path id="DejaVuSans-35" d="M 691 4666 
L 3169 4666 
L 3169 4134 
L 1269 4134 
L 1269 2991 
Q 1406 3038 1543 3061 
Q 1681 3084 1819 3084 
Q 2600 3084 3056 2656 
Q 3513 2228 3513 1497 
Q 3513 744 3044 326 
Q 2575 -91 1722 -91 
Q 1428 -91 1123 -41 
Q 819 9 494 109 
L 494 744 
Q 775 591 1075 516 
Q 1375 441 1709 441 
Q 2250 441 2565 725 
Q 2881 1009 2881 1497 
Q 2881 1984 2565 2268 
Q 2250 2553 1709 2553 
Q 1456 2553 1204 2497 
Q 953 2441 691 2322 
L 691 4666 
z
" transform="scale(0.015625)"/>
      </defs>
      <use xlink:href="#DejaVuSans-35"/>
      <use xlink:href="#DejaVuSans-30" x="63.623047"/>
      <use xlink:href="#DejaVuSans-30" x="127.246094"/>
      <use xlink:href="#DejaVuSans-30" x="190.869141"/>
     </g>
    </g>
   </g>
  </g>
  <g id="axis3d_2">
   <g id="line2d_8">
    <path d="M 357.020026 219.864878 
L 250.868543 292.99827 
" style="fill: none; stroke: #000000; stroke-width: 0.8; stroke-linecap: square"/>
   </g>
   <g id="text_8">
    <!-- # of cores -->
    <g transform="translate(316.663463 309.97091)rotate(-34.565019)scale(0.1 -0.1)">
     <defs>
      <path id="DejaVuSans-23" d="M 3272 2816 
L 2363 2816 
L 2100 1772 
L 3016 1772 
L 3272 2816 
z
M 2803 4594 
L 2478 3297 
L 3391 3297 
L 3719 4594 
L 4219 4594 
L 3897 3297 
L 4872 3297 
L 4872 2816 
L 3775 2816 
L 3519 1772 
L 4513 1772 
L 4513 1294 
L 3397 1294 
L 3072 0 
L 2572 0 
L 2894 1294 
L 1978 1294 
L 1656 0 
L 1153 0 
L 1478 1294 
L 494 1294 
L 494 1772 
L 1594 1772 
L 1856 2816 
L 850 2816 
L 850 3297 
L 1978 3297 
L 2297 4594 
L 2803 4594 
z
" transform="scale(0.015625)"/>
      <path id="DejaVuSans-66" d="M 2375 4863 
L 2375 4384 
L 1825 4384 
Q 1516 4384 1395 4259 
Q 1275 4134 1275 3809 
L 1275 3500 
L 2222 3500 
L 2222 3053 
L 1275 3053 
L 1275 0 
L 697 0 
L 697 3053 
L 147 3053 
L 147 3500 
L 697 3500 
L 697 3744 
Q 697 4328 969 4595 
Q 1241 4863 1831 4863 
L 2375 4863 
z
" transform="scale(0.015625)"/>
      <path id="DejaVuSans-63" d="M 3122 3366 
L 3122 2828 
Q 2878 2963 2633 3030 
Q 2388 3097 2138 3097 
Q 1578 3097 1268 2742 
Q 959 2388 959 1747 
Q 959 1106 1268 751 
Q 1578 397 2138 397 
Q 2388 397 2633 464 
Q 2878 531 3122 666 
L 3122 134 
Q 2881 22 2623 -34 
Q 2366 -91 2075 -91 
Q 1284 -91 818 406 
Q 353 903 353 1747 
Q 353 2603 823 3093 
Q 1294 3584 2113 3584 
Q 2378 3584 2631 3529 
Q 2884 3475 3122 3366 
z
" transform="scale(0.015625)"/>
      <path id="DejaVuSans-73" d="M 2834 3397 
L 2834 2853 
Q 2591 2978 2328 3040 
Q 2066 3103 1784 3103 
Q 1356 3103 1142 2972 
Q 928 2841 928 2578 
Q 928 2378 1081 2264 
Q 1234 2150 1697 2047 
L 1894 2003 
Q 2506 1872 2764 1633 
Q 3022 1394 3022 966 
Q 3022 478 2636 193 
Q 2250 -91 1575 -91 
Q 1294 -91 989 -36 
Q 684 19 347 128 
L 347 722 
Q 666 556 975 473 
Q 1284 391 1588 391 
Q 1994 391 2212 530 
Q 2431 669 2431 922 
Q 2431 1156 2273 1281 
Q 2116 1406 1581 1522 
L 1381 1569 
Q 847 1681 609 1914 
Q 372 2147 372 2553 
Q 372 3047 722 3315 
Q 1072 3584 1716 3584 
Q 2034 3584 2315 3537 
Q 2597 3491 2834 3397 
z
" transform="scale(0.015625)"/>
     </defs>
     <use xlink:href="#DejaVuSans-23"/>
     <use xlink:href="#DejaVuSans-20" x="83.789062"/>
     <use xlink:href="#DejaVuSans-6f" x="115.576172"/>
     <use xlink:href="#DejaVuSans-66" x="176.757812"/>
     <use xlink:href="#DejaVuSans-20" x="211.962891"/>
     <use xlink:href="#DejaVuSans-63" x="243.75"/>
     <use xlink:href="#DejaVuSans-6f" x="298.730469"/>
     <use xlink:href="#DejaVuSans-72" x="359.912109"/>
     <use xlink:href="#DejaVuSans-65" x="398.775391"/>
     <use xlink:href="#DejaVuSans-73" x="460.298828"/>
    </g>
   </g>
   <g id="Line3DCollection_2">
    <path d="M 123.382101 115.101482 
L 128.470545 226.481405 
L 258.146881 287.983837 
" style="fill: none; stroke: #b0b0b0; stroke-width: 0.8"/>
    <path d="M 153.238776 99.785467 
L 156.950153 209.714738 
L 285.942605 268.833886 
" style="fill: none; stroke: #b0b0b0; stroke-width: 0.8"/>
    <path d="M 181.937725 85.063347 
L 184.371926 193.570846 
L 312.637071 250.442652 
" style="fill: none; stroke: #b0b0b0; stroke-width: 0.8"/>
    <path d="M 209.545004 70.901237 
L 210.793725 178.015662 
L 338.294453 232.765919 
" style="fill: none; stroke: #b0b0b0; stroke-width: 0.8"/>
   </g>
   <g id="xtick_7">
    <g id="line2d_9">
     <path d="M 257.038076 287.457957 
L 260.368189 289.037351 
" style="fill: none; stroke: #000000; stroke-width: 0.8; stroke-linecap: square"/>
    </g>
    <g id="text_9">
     <!-- 1 -->
     <g transform="translate(266.422248 310.279341)scale(0.1 -0.1)">
      <use xlink:href="#DejaVuSans-31"/>
     </g>
    </g>
   </g>
   <g id="xtick_8">
    <g id="line2d_10">
     <path d="M 284.841083 268.329042 
L 288.149251 269.845225 
" style="fill: none; stroke: #000000; stroke-width: 0.8; stroke-linecap: square"/>
    </g>
    <g id="text_10">
     <!-- 3 -->
     <g transform="translate(294.037288 290.79648)scale(0.1 -0.1)">
      <use xlink:href="#DejaVuSans-33"/>
     </g>
    </g>
   </g>
   <g id="xtick_9">
    <g id="line2d_11">
     <path d="M 311.543129 249.957606 
L 314.828459 251.414297 
" style="fill: none; stroke: #000000; stroke-width: 0.8; stroke-linecap: square"/>
    </g>
    <g id="text_11">
     <!-- 5 -->
     <g transform="translate(320.556248 272.086921)scale(0.1 -0.1)">
      <use xlink:href="#DejaVuSans-35"/>
     </g>
    </g>
   </g>
   <g id="xtick_10">
    <g id="line2d_12">
     <path d="M 337.20834 232.299529 
L 340.470092 233.700163 
" style="fill: none; stroke: #000000; stroke-width: 0.8; stroke-linecap: square"/>
    </g>
    <g id="text_12">
     <!-- 7 -->
     <g transform="translate(346.043117 254.105519)scale(0.1 -0.1)">
      <defs>
       <path id="DejaVuSans-37" d="M 525 4666 
L 3525 4666 
L 3525 4397 
L 1831 0 
L 1172 0 
L 2766 4134 
L 525 4134 
L 525 4666 
z
" transform="scale(0.015625)"/>
      </defs>
      <use xlink:href="#DejaVuSans-37"/>
     </g>
    </g>
   </g>
  </g>
  <g id="axis3d_3">
   <g id="line2d_13">
    <path d="M 357.020026 219.864878 
L 362.339969 109.054252 
" style="fill: none; stroke: #000000; stroke-width: 0.8; stroke-linecap: square"/>
   </g>
   <g id="text_13">
    <!-- Time (us) -->
    <g transform="translate(414.381014 186.967265)rotate(-87.251379)scale(0.1 -0.1)">
     <defs>
      <path id="DejaVuSans-54" d="M -19 4666 
L 3928 4666 
L 3928 4134 
L 2272 4134 
L 2272 0 
L 1638 0 
L 1638 4134 
L -19 4134 
L -19 4666 
z
" transform="scale(0.015625)"/>
      <path id="DejaVuSans-69" d="M 603 3500 
L 1178 3500 
L 1178 0 
L 603 0 
L 603 3500 
z
M 603 4863 
L 1178 4863 
L 1178 4134 
L 603 4134 
L 603 4863 
z
" transform="scale(0.015625)"/>
      <path id="DejaVuSans-6d" d="M 3328 2828 
Q 3544 3216 3844 3400 
Q 4144 3584 4550 3584 
Q 5097 3584 5394 3201 
Q 5691 2819 5691 2113 
L 5691 0 
L 5113 0 
L 5113 2094 
Q 5113 2597 4934 2840 
Q 4756 3084 4391 3084 
Q 3944 3084 3684 2787 
Q 3425 2491 3425 1978 
L 3425 0 
L 2847 0 
L 2847 2094 
Q 2847 2600 2669 2842 
Q 2491 3084 2119 3084 
Q 1678 3084 1418 2786 
Q 1159 2488 1159 1978 
L 1159 0 
L 581 0 
L 581 3500 
L 1159 3500 
L 1159 2956 
Q 1356 3278 1631 3431 
Q 1906 3584 2284 3584 
Q 2666 3584 2933 3390 
Q 3200 3197 3328 2828 
z
" transform="scale(0.015625)"/>
     </defs>
     <use xlink:href="#DejaVuSans-54"/>
     <use xlink:href="#DejaVuSans-69" x="57.958984"/>
     <use xlink:href="#DejaVuSans-6d" x="85.742188"/>
     <use xlink:href="#DejaVuSans-65" x="183.154297"/>
     <use xlink:href="#DejaVuSans-20" x="244.677734"/>
     <use xlink:href="#DejaVuSans-28" x="276.464844"/>
     <use xlink:href="#DejaVuSans-75" x="315.478516"/>
     <use xlink:href="#DejaVuSans-73" x="378.857422"/>
     <use xlink:href="#DejaVuSans-29" x="430.957031"/>
    </g>
   </g>
   <g id="text_14">
    <!-- 1e6 -->
    <g transform="translate(418.515404 125.829358)rotate(-87.251379)scale(0.1 -0.1)">
     <defs>
      <path id="DejaVuSans-36" d="M 2113 2584 
Q 1688 2584 1439 2293 
Q 1191 2003 1191 1497 
Q 1191 994 1439 701 
Q 1688 409 2113 409 
Q 2538 409 2786 701 
Q 3034 994 3034 1497 
Q 3034 2003 2786 2293 
Q 2538 2584 2113 2584 
z
M 3366 4563 
L 3366 3988 
Q 3128 4100 2886 4159 
Q 2644 4219 2406 4219 
Q 1781 4219 1451 3797 
Q 1122 3375 1075 2522 
Q 1259 2794 1537 2939 
Q 1816 3084 2150 3084 
Q 2853 3084 3261 2657 
Q 3669 2231 3669 1497 
Q 3669 778 3244 343 
Q 2819 -91 2113 -91 
Q 1303 -91 875 529 
Q 447 1150 447 2328 
Q 447 3434 972 4092 
Q 1497 4750 2381 4750 
Q 2619 4750 2861 4703 
Q 3103 4656 3366 4563 
z
" transform="scale(0.015625)"/>
     </defs>
     <use xlink:href="#DejaVuSans-31"/>
     <use xlink:href="#DejaVuSans-65" x="63.623047"/>
     <use xlink:href="#DejaVuSans-36" x="125.146484"/>
    </g>
   </g>
   <g id="Line3DCollection_3">
    <path d="M 357.121895 217.743004 
L 230.109909 164.602322 
L 120.921036 228.725746 
" style="fill: none; stroke: #b0b0b0; stroke-width: 0.8"/>
    <path d="M 357.73685 204.933934 
L 230.062443 152.311467 
L 120.290547 215.813741 
" style="fill: none; stroke: #b0b0b0; stroke-width: 0.8"/>
    <path d="M 358.358283 191.989927 
L 230.014507 139.899055 
L 119.653331 202.763993 
" style="fill: none; stroke: #b0b0b0; stroke-width: 0.8"/>
    <path d="M 358.986297 178.908839 
L 229.966095 127.363273 
L 119.009282 189.574287 
" style="fill: none; stroke: #b0b0b0; stroke-width: 0.8"/>
    <path d="M 359.620998 165.688482 
L 229.9172 114.702273 
L 118.358287 176.242358 
" style="fill: none; stroke: #b0b0b0; stroke-width: 0.8"/>
    <path d="M 360.262492 152.32662 
L 229.867813 101.914169 
L 117.700236 162.765896 
" style="fill: none; stroke: #b0b0b0; stroke-width: 0.8"/>
    <path d="M 360.910889 138.820967 
L 229.817929 88.997038 
L 117.035011 149.142535 
" style="fill: none; stroke: #b0b0b0; stroke-width: 0.8"/>
    <path d="M 361.566302 125.169191 
L 229.767538 75.948917 
L 116.362495 135.369861 
" style="fill: none; stroke: #b0b0b0; stroke-width: 0.8"/>
    <path d="M 362.228844 111.368908 
L 229.716634 62.767804 
L 115.682568 121.445406 
" style="fill: none; stroke: #b0b0b0; stroke-width: 0.8"/>
   </g>
   <g id="xtick_11">
    <g id="line2d_14">
     <path d="M 356.04084 217.2907 
L 359.287355 218.649013 
" style="fill: none; stroke: #000000; stroke-width: 0.8; stroke-linecap: square"/>
    </g>
    <g id="text_15">
     <!-- 0.00 -->
     <g transform="translate(365.325129 224.442364)scale(0.1 -0.1)">
      <defs>
       <path id="DejaVuSans-2e" d="M 684 794 
L 1344 794 
L 1344 0 
L 684 0 
L 684 794 
z
" transform="scale(0.015625)"/>
      </defs>
      <use xlink:href="#DejaVuSans-30"/>
      <use xlink:href="#DejaVuSans-2e" x="63.623047"/>
      <use xlink:href="#DejaVuSans-30" x="95.410156"/>
      <use xlink:href="#DejaVuSans-30" x="159.033203"/>
     </g>
    </g>
   </g>
   <g id="xtick_12">
    <g id="line2d_15">
     <path d="M 356.649815 204.4859 
L 359.914306 205.831397 
" style="fill: none; stroke: #000000; stroke-width: 0.8; stroke-linecap: square"/>
    </g>
    <g id="text_16">
     <!-- 0.25 -->
     <g transform="translate(366.040659 211.641784)scale(0.1 -0.1)">
      <use xlink:href="#DejaVuSans-30"/>
      <use xlink:href="#DejaVuSans-2e" x="63.623047"/>
      <use xlink:href="#DejaVuSans-32" x="95.410156"/>
      <use xlink:href="#DejaVuSans-35" x="159.033203"/>
     </g>
    </g>
   </g>
   <g id="xtick_13">
    <g id="line2d_16">
     <path d="M 357.265202 191.546278 
L 360.547869 192.878614 
" style="fill: none; stroke: #000000; stroke-width: 0.8; stroke-linecap: square"/>
    </g>
    <g id="text_17">
     <!-- 0.50 -->
     <g transform="translate(366.76372 198.706496)scale(0.1 -0.1)">
      <use xlink:href="#DejaVuSans-30"/>
      <use xlink:href="#DejaVuSans-2e" x="63.623047"/>
      <use xlink:href="#DejaVuSans-35" x="95.410156"/>
      <use xlink:href="#DejaVuSans-30" x="159.033203"/>
     </g>
    </g>
   </g>
   <g id="xtick_14">
    <g id="line2d_17">
     <path d="M 357.887102 178.469694 
L 361.188148 179.788513 
" style="fill: none; stroke: #000000; stroke-width: 0.8; stroke-linecap: square"/>
    </g>
    <g id="text_18">
     <!-- 0.75 -->
     <g transform="translate(367.494431 185.634362)scale(0.1 -0.1)">
      <use xlink:href="#DejaVuSans-30"/>
      <use xlink:href="#DejaVuSans-2e" x="63.623047"/>
      <use xlink:href="#DejaVuSans-37" x="95.410156"/>
      <use xlink:href="#DejaVuSans-35" x="159.033203"/>
     </g>
    </g>
   </g>
   <g id="xtick_15">
    <g id="line2d_18">
     <path d="M 358.51562 165.253961 
L 361.835251 166.558899 
" style="fill: none; stroke: #000000; stroke-width: 0.8; stroke-linecap: square"/>
    </g>
    <g id="text_19">
     <!-- 1.00 -->
     <g transform="translate(368.232912 172.4232)scale(0.1 -0.1)">
      <use xlink:href="#DejaVuSans-31"/>
      <use xlink:href="#DejaVuSans-2e" x="63.623047"/>
      <use xlink:href="#DejaVuSans-30" x="95.410156"/>
      <use xlink:href="#DejaVuSans-30" x="159.033203"/>
     </g>
    </g>
   </g>
   <g id="xtick_16">
    <g id="line2d_19">
     <path d="M 359.150862 151.896848 
L 362.489289 153.187531 
" style="fill: none; stroke: #000000; stroke-width: 0.8; stroke-linecap: square"/>
    </g>
    <g id="text_20">
     <!-- 1.25 -->
     <g transform="translate(368.97929 159.070779)scale(0.1 -0.1)">
      <use xlink:href="#DejaVuSans-31"/>
      <use xlink:href="#DejaVuSans-2e" x="63.623047"/>
      <use xlink:href="#DejaVuSans-32" x="95.410156"/>
      <use xlink:href="#DejaVuSans-35" x="159.033203"/>
     </g>
    </g>
   </g>
   <g id="xtick_17">
    <g id="line2d_20">
     <path d="M 359.792936 138.396072 
L 363.150371 139.672117 
" style="fill: none; stroke: #000000; stroke-width: 0.8; stroke-linecap: square"/>
    </g>
    <g id="text_21">
     <!-- 1.50 -->
     <g transform="translate(369.733691 145.574823)scale(0.1 -0.1)">
      <use xlink:href="#DejaVuSans-31"/>
      <use xlink:href="#DejaVuSans-2e" x="63.623047"/>
      <use xlink:href="#DejaVuSans-35" x="95.410156"/>
      <use xlink:href="#DejaVuSans-30" x="159.033203"/>
     </g>
    </g>
   </g>
   <g id="xtick_18">
    <g id="line2d_21">
     <path d="M 360.441953 124.749303 
L 363.818614 126.010318 
" style="fill: none; stroke: #000000; stroke-width: 0.8; stroke-linecap: square"/>
    </g>
    <g id="text_22">
     <!-- 1.75 -->
     <g transform="translate(370.496246 131.933003)scale(0.1 -0.1)">
      <use xlink:href="#DejaVuSans-31"/>
      <use xlink:href="#DejaVuSans-2e" x="63.623047"/>
      <use xlink:href="#DejaVuSans-37" x="95.410156"/>
      <use xlink:href="#DejaVuSans-35" x="159.033203"/>
     </g>
    </g>
   </g>
   <g id="xtick_19">
    <g id="line2d_22">
     <path d="M 361.098027 110.954161 
L 364.494135 112.199742 
" style="fill: none; stroke: #000000; stroke-width: 0.8; stroke-linecap: square"/>
    </g>
    <g id="text_23">
     <!-- 2.00 -->
     <g transform="translate(371.267087 118.142942)scale(0.1 -0.1)">
      <use xlink:href="#DejaVuSans-32"/>
      <use xlink:href="#DejaVuSans-2e" x="63.623047"/>
      <use xlink:href="#DejaVuSans-30" x="95.410156"/>
      <use xlink:href="#DejaVuSans-30" x="159.033203"/>
     </g>
    </g>
   </g>
  </g>
  <g id="axes_1">
   <g id="Line3DCollection_4">
    <path d="M 133.19849 159.199006 
L 147.877306 147.660619 
L 162.295587 135.893971 
L 176.466292 123.873414 
L 190.401445 111.530653 
L 204.113558 98.773277 
L 217.616204 85.482244 
L 230.924597 71.503624 
" clip-path="url(#p395a86d71b)" style="fill: none; stroke: #00bfbf"/>
    <path d="M 137.360816 206.281723 
L 151.834919 196.823884 
L 166.037964 187.369995 
L 179.98061 177.935022 
L 193.67204 168.500391 
L 207.121229 159.03646 
L 220.337248 149.504688 
L 233.329487 139.855726 
" clip-path="url(#p395a86d71b)" style="fill: none; stroke: #00bfbf"/>
    <path d="M 139.935563 216.323925 
L 154.365645 207.248473 
L 168.52251 198.221047 
L 182.416366 189.26405 
L 196.055869 180.36792 
L 209.44934 171.514456 
L 222.605026 162.679708 
L 235.531249 153.833109 
" clip-path="url(#p395a86d71b)" style="fill: none; stroke: #00bfbf"/>
    <path d="M 142.293238 221.201093 
L 156.701861 212.276461 
L 170.836246 203.418712 
L 184.706401 194.65345 
L 198.320763 185.974833 
L 211.687386 177.369548 
L 224.814174 168.819621 
L 237.709009 160.302382 
" clip-path="url(#p395a86d71b)" style="fill: none; stroke: #00bfbf"/>
    <path d="M 144.582429 224.368783 
L 158.977042 215.518583 
L 173.096773 206.745947 
L 186.95151 198.078149 
L 200.549574 189.511517 
L 213.898876 181.035326 
L 227.007135 172.6349 
L 239.881997 164.29186 
" clip-path="url(#p395a86d71b)" style="fill: none; stroke: #00bfbf"/>
    <path d="M 146.843397 226.763004 
L 161.22735 217.952719 
L 175.335944 209.22698 
L 189.178987 200.614089 
L 202.76473 192.111748 
L 216.100995 183.71078 
L 229.195393 175.398779 
L 242.055421 167.159995 
" clip-path="url(#p395a86d71b)" style="fill: none; stroke: #00bfbf"/>
    <path d="M 149.091594 228.742689 
L 163.466656 219.953772 
L 177.565976 211.254324 
L 191.3993 202.673468 
L 204.974833 194.209756 
L 218.300339 185.855251 
L 231.383356 177.598857 
L 244.231285 169.426807 
" clip-path="url(#p395a86d71b)" style="fill: none; stroke: #00bfbf"/>
    <path d="M 151.334221 230.474962 
L 165.701429 221.696189 
L 179.792567 213.010704 
L 193.617333 204.448219 
L 207.183895 196.007808 
L 220.499983 187.682444 
L 233.573083 179.462072 
L 246.410527 171.334242 
" clip-path="url(#p395a86d71b)" style="fill: none; stroke: #00bfbf"/>
    <path d="M 153.575092 232.048084 
L 167.935095 223.272291 
L 182.018738 214.592817 
L 195.835673 206.039778 
L 209.394047 197.612786 
L 222.701563 189.305335 
L 235.765671 181.108283 
L 248.593654 173.010124 
" clip-path="url(#p395a86d71b)" style="fill: none; stroke: #00bfbf"/>
    <path d="M 155.816423 233.513199 
L 170.169648 224.735491 
L 184.246242 216.056525 
L 198.055825 207.506784 
L 211.606526 199.086376 
L 224.906029 190.789231 
L 237.961758 182.606783 
L 250.780962 174.528383 
" clip-path="url(#p395a86d71b)" style="fill: none; stroke: #00bfbf"/>
    <path d="M 158.059595 234.901988 
L 172.406322 226.118667 
L 186.476171 217.436299 
L 200.278726 208.885587 
L 213.822104 200.466841 
L 227.113976 192.174537 
L 240.161749 184.000492 
L 252.972642 175.934728 
" clip-path="url(#p395a86d71b)" style="fill: none; stroke: #00bfbf"/>
    <path d="M 160.305505 236.234905 
L 174.645931 227.443434 
L 188.709242 218.75475 
L 202.504993 210.199783 
L 216.041291 201.779152 
L 229.325798 193.487533 
L 242.36591 185.317286 
L 255.168824 177.258965 
" clip-path="url(#p395a86d71b)" style="fill: none; stroke: #00bfbf"/>
    <path d="M 162.55478 237.526099 
L 176.889034 228.724419 
L 190.94595 220.027182 
L 204.735049 211.465447 
L 218.264437 203.040149 
L 231.541768 194.746166 
L 244.574429 186.576205 
L 257.369601 178.521263 
" clip-path="url(#p395a86d71b)" style="fill: none; stroke: #00bfbf"/>
    <path d="M 164.807859 238.785379 
L 179.13603 229.971887 
L 193.186645 221.264308 
L 206.969201 212.69394 
L 220.491796 204.261778 
L 233.762083 195.963013 
L 246.787442 187.790603 
L 259.575044 179.735938 
" clip-path="url(#p395a86d71b)" style="fill: none; stroke: #00bfbf"/>
    <path d="M 167.065067 240.019871 
L 181.387211 231.193277 
L 195.431589 222.473982 
L 209.207672 213.893371 
L 222.723554 205.452657 
L 235.98689 197.147192 
L 249.005052 188.97014 
L 261.785208 180.913242 
" clip-path="url(#p395a86d71b)" style="fill: none; stroke: #00bfbf"/>
    <path d="M 169.32665 241.234841 
L 183.642801 232.394183 
L 197.680979 223.661968 
L 211.450634 215.069926 
L 224.959856 206.619237 
L 238.216301 198.305416 
L 251.227342 190.121938 
L 264.000138 182.060799 
" clip-path="url(#p395a86d71b)" style="fill: none; stroke: #00bfbf"/>
    <path d="M 171.592801 242.434369 
L 185.902971 233.578711 
L 199.93497 224.832703 
L 213.69822 216.228066 
L 227.200815 207.766253 
L 240.450409 199.442895 
L 253.454376 191.251527 
L 266.219873 183.18445 
" clip-path="url(#p395a86d71b)" style="fill: none; stroke: #00bfbf"/>
    <path d="M 173.86367 243.621504 
L 188.167859 234.750096 
L 202.193684 225.989506 
L 215.950539 217.371494 
L 229.44652 208.897539 
L 242.689285 200.563486 
L 255.686209 192.363037 
L 268.444446 184.288652 
" clip-path="url(#p395a86d71b)" style="fill: none; stroke: #00bfbf"/>
    <path d="M 176.139381 244.798728 
L 190.437579 235.910958 
L 204.457221 227.135029 
L 218.207679 218.502849 
L 231.697049 210.016017 
L 244.932992 201.670348 
L 257.922887 193.459759 
L 270.673886 185.376921 
" clip-path="url(#p395a86d71b)" style="fill: none; stroke: #00bfbf"/>
    <path d="M 178.420035 245.967905 
L 192.712222 237.063252 
L 206.725667 228.271472 
L 220.469714 219.624465 
L 233.952464 211.123959 
L 247.181582 202.765886 
L 260.16445 194.544332 
L 272.908222 186.451979 
" clip-path="url(#p395a86d71b)" style="fill: none; stroke: #00bfbf"/>
    <path d="M 180.705719 247.130638 
L 194.991868 238.208571 
L 208.99909 229.400417 
L 222.736707 220.73807 
L 236.21282 212.223282 
L 249.4351 203.852158 
L 262.410934 195.6188 
L 275.147477 187.516107 
" clip-path="url(#p395a86d71b)" style="fill: none; stroke: #00bfbf"/>
    <path d="M 182.996505 248.288175 
L 197.276584 239.348359 
L 211.277553 230.523298 
L 225.008712 221.845087 
L 238.478164 213.315552 
L 251.693587 204.93077 
L 264.662371 196.68496 
L 277.391676 188.571188 
" clip-path="url(#p395a86d71b)" style="fill: none; stroke: #00bfbf"/>
    <path d="M 185.292458 249.441552 
L 199.566429 240.483596 
L 213.56111 231.641294 
L 227.285778 222.946789 
L 240.74854 214.401985 
L 253.957079 206.002977 
L 266.918792 197.744108 
L 279.640841 189.618611 
" clip-path="url(#p395a86d71b)" style="fill: none; stroke: #00bfbf"/>
    <path d="M 187.593634 250.591654 
L 201.861455 241.615212 
L 215.849808 232.755278 
L 229.567949 224.044145 
L 243.023986 215.48359 
L 256.22561 207.069937 
L 269.180223 198.797546 
L 281.894993 190.659718 
" clip-path="url(#p395a86d71b)" style="fill: none; stroke: #00bfbf"/>
    <path d="M 189.900084 251.739212 
L 204.161709 242.743983 
L 218.143692 233.866122 
L 231.855263 225.13792 
L 245.304536 216.561334 
L 258.499209 208.132607 
L 271.44669 199.846172 
L 284.154153 191.6955 
" clip-path="url(#p395a86d71b)" style="fill: none; stroke: #00bfbf"/>
    <path d="M 192.211853 252.884801 
L 206.467234 243.870531 
L 220.442799 234.974445 
L 234.147756 226.228932 
L 247.590224 217.635874 
L 260.777906 209.191692 
L 273.718219 200.890889 
L 286.418342 192.726855 
" clip-path="url(#p395a86d71b)" style="fill: none; stroke: #00bfbf"/>
    <path d="M 194.528984 254.029048 
L 208.778069 244.995378 
L 222.747167 236.080867 
L 236.445463 227.317694 
L 249.881079 218.707924 
L 263.061727 210.247951 
L 275.994833 201.932298 
L 288.687578 193.75458 
" clip-path="url(#p395a86d71b)" style="fill: none; stroke: #00bfbf"/>
    <path d="M 196.851515 255.172269 
L 211.09425 246.119096 
L 225.056829 237.185801 
L 238.748413 228.404719 
L 252.17713 219.777943 
L 265.3507 211.301838 
L 278.276554 202.971053 
L 290.961883 194.779222 
" clip-path="url(#p395a86d71b)" style="fill: none; stroke: #00bfbf"/>
    <path d="M 199.179484 256.314992 
L 213.415812 247.241999 
L 227.371817 238.289714 
L 241.056638 229.490523 
L 254.478406 220.846441 
L 267.644848 212.353963 
L 280.563405 204.007708 
L 293.241275 195.801383 
" clip-path="url(#p395a86d71b)" style="fill: none; stroke: #00bfbf"/>
    <path d="M 201.512923 257.457429 
L 215.742787 248.364455 
L 229.692163 239.392972 
L 243.370166 230.575415 
L 256.784931 221.913778 
L 269.944196 213.404631 
L 282.855408 205.042667 
L 295.525772 196.821562 
" clip-path="url(#p395a86d71b)" style="fill: none; stroke: #00bfbf"/>
    <path d="M 203.851864 258.599899 
L 218.075206 249.48678 
L 232.017894 240.495887 
L 245.689023 231.659706 
L 259.096732 222.980365 
L 272.248767 214.4543 
L 285.152584 206.076283 
L 297.815394 197.840162 
" clip-path="url(#p395a86d71b)" style="fill: none; stroke: #00bfbf"/>
    <path d="M 206.196341 259.742721 
L 220.413098 250.609239 
L 234.349039 241.598775 
L 248.013236 232.743813 
L 261.413832 224.046458 
L 274.558583 215.503278 
L 287.454952 207.109012 
L 300.11016 198.857485 
" clip-path="url(#p395a86d71b)" style="fill: none; stroke: #00bfbf"/>
    <path d="M 208.54638 260.886058 
L 222.756491 251.732045 
L 236.685625 242.701794 
L 250.34283 233.827892 
L 263.736256 225.11237 
L 276.873666 216.551821 
L 289.762534 208.14106 
L 302.410087 199.873984 
" clip-path="url(#p395a86d71b)" style="fill: none; stroke: #00bfbf"/>
    <path d="M 210.902013 262.030179 
L 225.105413 252.855464 
L 239.027677 243.80526 
L 252.67783 234.912154 
L 266.064027 226.178309 
L 279.194039 217.600238 
L 292.075351 209.172732 
L 304.715196 200.889813 
" clip-path="url(#p395a86d71b)" style="fill: none; stroke: #00bfbf"/>
    <path d="M 213.263266 263.175194 
L 227.45989 253.979606 
L 241.37522 244.909335 
L 255.01826 235.996914 
L 268.397167 227.244482 
L 281.519723 218.648685 
L 294.393421 210.204284 
L 307.025503 201.905325 
" clip-path="url(#p395a86d71b)" style="fill: none; stroke: #00bfbf"/>
    <path d="M 215.630167 264.321267 
L 229.819949 255.104687 
L 243.728281 246.014128 
L 257.364143 237.082226 
L 270.735699 228.311153 
L 283.85074 219.697371 
L 296.716765 211.235872 
L 309.34103 202.920624 
" clip-path="url(#p395a86d71b)" style="fill: none; stroke: #00bfbf"/>
    <path d="M 218.002741 265.468564 
L 232.185614 256.230869 
L 246.086883 247.119903 
L 259.715504 238.168356 
L 273.079646 229.378375 
L 286.187108 220.746553 
L 299.045403 212.267753 
L 311.661791 203.936067 
" clip-path="url(#p395a86d71b)" style="fill: none; stroke: #00bfbf"/>
    <path d="M 220.381017 266.617249 
L 234.556912 257.358211 
L 248.451051 248.22672 
L 262.072365 239.25536 
L 275.429029 230.446361 
L 288.528852 221.796289 
L 301.379355 213.300032 
L 313.987807 204.951707 
" clip-path="url(#p395a86d71b)" style="fill: none; stroke: #00bfbf"/>
    <path d="M 222.765018 267.767382 
L 236.933866 258.486929 
L 250.820807 249.33474 
L 264.434748 240.343451 
L 277.783869 231.515268 
L 290.875989 222.846786 
L 303.718639 214.332917 
L 316.319097 205.967751 
" clip-path="url(#p395a86d71b)" style="fill: none; stroke: #00bfbf"/>
    <path d="M 225.154769 268.919076 
L 239.316501 259.617083 
L 253.196176 250.444023 
L 266.802677 241.432686 
L 280.144189 232.585207 
L 293.228543 223.898153 
L 306.063277 215.366463 
L 318.65568 206.984302 
" clip-path="url(#p395a86d71b)" style="fill: none; stroke: #00bfbf"/>
    <path d="M 227.550297 270.072498 
L 241.704841 260.748785 
L 255.57718 251.554783 
L 269.176173 242.523228 
L 282.510011 233.656234 
L 295.586532 224.950498 
L 308.413286 216.400879 
L 320.99757 208.001619 
" clip-path="url(#p395a86d71b)" style="fill: none; stroke: #00bfbf"/>
    <path d="M 229.951626 271.227602 
L 244.098911 261.882095 
L 257.963843 252.666975 
L 271.555259 243.615083 
L 284.881354 234.728562 
L 297.949977 226.003979 
L 310.768687 217.436272 
L 323.344792 209.019656 
" clip-path="url(#p395a86d71b)" style="fill: none; stroke: #00bfbf"/>
    <path d="M 232.358779 272.384608 
L 246.498732 263.017126 
L 260.356187 253.780815 
L 273.939956 244.708465 
L 287.258241 235.802196 
L 300.318899 227.058602 
L 313.1295 218.472697 
L 325.697359 210.03867 
" clip-path="url(#p395a86d71b)" style="fill: none; stroke: #00bfbf"/>
    <path d="M 234.771782 273.543471 
L 248.90433 264.153937 
L 262.754236 254.896311 
L 276.330288 245.80333 
L 289.640693 236.877247 
L 302.693317 228.114579 
L 315.495742 219.510314 
L 328.055295 211.058616 
" clip-path="url(#p395a86d71b)" style="fill: none; stroke: #00bfbf"/>
    <path d="M 237.190659 274.704359 
L 251.315727 265.292643 
L 265.158011 256.013575 
L 278.726275 246.899891 
L 292.02873 237.953772 
L 305.073254 229.171864 
L 317.867436 220.549128 
L 330.418614 212.079753 
" clip-path="url(#p395a86d71b)" style="fill: none; stroke: #00bfbf"/>
    <path d="M 239.615433 275.867333 
L 253.732947 266.433251 
L 267.567536 257.132615 
L 281.127939 247.998105 
L 294.422375 239.031882 
L 307.458727 230.230669 
L 320.244599 221.589299 
L 332.787337 213.102036 
" clip-path="url(#p395a86d71b)" style="fill: none; stroke: #00bfbf"/>
    <path d="M 242.046129 277.03235 
L 256.156012 267.575875 
L 269.982832 258.253542 
L 283.535303 249.098083 
L 296.821646 240.111687 
L 309.849759 231.290949 
L 322.627253 222.630832 
L 335.161484 214.125572 
" clip-path="url(#p395a86d71b)" style="fill: none; stroke: #00bfbf"/>
    <path d="M 244.48277 278.199523 
L 258.584947 268.720577 
L 272.403923 259.376418 
L 285.948387 250.199885 
L 299.226567 241.193143 
L 312.246369 232.352815 
L 325.015416 223.673835 
L 337.541071 215.150468 
" clip-path="url(#p395a86d71b)" style="fill: none; stroke: #00bfbf"/>
    <path d="M 246.92538 279.368969 
L 261.019774 269.867312 
L 274.830831 260.501251 
L 288.367214 251.30357 
L 301.637158 242.27636 
L 314.648578 233.416323 
L 327.409107 224.718368 
L 339.926121 216.17673 
" clip-path="url(#p395a86d71b)" style="fill: none; stroke: #00bfbf"/>
    <path d="M 249.373983 280.540644 
L 263.460516 271.016247 
L 277.263577 261.628153 
L 290.791806 252.409146 
L 304.053439 243.36145 
L 317.056405 234.481585 
L 329.808347 225.764486 
L 342.316647 217.204518 
" clip-path="url(#p395a86d71b)" style="fill: none; stroke: #00bfbf"/>
    <path d="M 133.19849 159.199006 
L 137.360816 206.281723 
L 139.935563 216.323925 
L 142.293238 221.201093 
L 144.582429 224.368783 
L 146.843397 226.763004 
L 149.091594 228.742689 
L 151.334221 230.474962 
L 153.575092 232.048084 
L 155.816423 233.513199 
L 158.059595 234.901988 
L 160.305505 236.234905 
L 162.55478 237.526099 
L 164.807859 238.785379 
L 167.065067 240.019871 
L 169.32665 241.234841 
L 171.592801 242.434369 
L 173.86367 243.621504 
L 176.139381 244.798728 
L 178.420035 245.967905 
L 180.705719 247.130638 
L 182.996505 248.288175 
L 185.292458 249.441552 
L 187.593634 250.591654 
L 189.900084 251.739212 
L 192.211853 252.884801 
L 194.528984 254.029048 
L 196.851515 255.172269 
L 199.179484 256.314992 
L 201.512923 257.457429 
L 203.851864 258.599899 
L 206.196341 259.742721 
L 208.54638 260.886058 
L 210.902013 262.030179 
L 213.263266 263.175194 
L 215.630167 264.321267 
L 218.002741 265.468564 
L 220.381017 266.617249 
L 222.765018 267.767382 
L 225.154769 268.919076 
L 227.550297 270.072498 
L 229.951626 271.227602 
L 232.358779 272.384608 
L 234.771782 273.543471 
L 237.190659 274.704359 
L 239.615433 275.867333 
L 242.046129 277.03235 
L 244.48277 278.199523 
L 246.92538 279.368969 
L 249.373983 280.540644 
" clip-path="url(#p395a86d71b)" style="fill: none; stroke: #00bfbf"/>
    <path d="M 147.877306 147.660619 
L 151.834919 196.823884 
L 154.365645 207.248473 
L 156.701861 212.276461 
L 158.977042 215.518583 
L 161.22735 217.952719 
L 163.466656 219.953772 
L 165.701429 221.696189 
L 167.935095 223.272291 
L 170.169648 224.735491 
L 172.406322 226.118667 
L 174.645931 227.443434 
L 176.889034 228.724419 
L 179.13603 229.971887 
L 181.387211 231.193277 
L 183.642801 232.394183 
L 185.902971 233.578711 
L 188.167859 234.750096 
L 190.437579 235.910958 
L 192.712222 237.063252 
L 194.991868 238.208571 
L 197.276584 239.348359 
L 199.566429 240.483596 
L 201.861455 241.615212 
L 204.161709 242.743983 
L 206.467234 243.870531 
L 208.778069 244.995378 
L 211.09425 246.119096 
L 213.415812 247.241999 
L 215.742787 248.364455 
L 218.075206 249.48678 
L 220.413098 250.609239 
L 222.756491 251.732045 
L 225.105413 252.855464 
L 227.45989 253.979606 
L 229.819949 255.104687 
L 232.185614 256.230869 
L 234.556912 257.358211 
L 236.933866 258.486929 
L 239.316501 259.617083 
L 241.704841 260.748785 
L 244.098911 261.882095 
L 246.498732 263.017126 
L 248.90433 264.153937 
L 251.315727 265.292643 
L 253.732947 266.433251 
L 256.156012 267.575875 
L 258.584947 268.720577 
L 261.019774 269.867312 
L 263.460516 271.016247 
" clip-path="url(#p395a86d71b)" style="fill: none; stroke: #00bfbf"/>
    <path d="M 162.295587 135.893971 
L 166.037964 187.369995 
L 168.52251 198.221047 
L 170.836246 203.418712 
L 173.096773 206.745947 
L 175.335944 209.22698 
L 177.565976 211.254324 
L 179.792567 213.010704 
L 182.018738 214.592817 
L 184.246242 216.056525 
L 186.476171 217.436299 
L 188.709242 218.75475 
L 190.94595 220.027182 
L 193.186645 221.264308 
L 195.431589 222.473982 
L 197.680979 223.661968 
L 199.93497 224.832703 
L 202.193684 225.989506 
L 204.457221 227.135029 
L 206.725667 228.271472 
L 208.99909 229.400417 
L 211.277553 230.523298 
L 213.56111 231.641294 
L 215.849808 232.755278 
L 218.143692 233.866122 
L 220.442799 234.974445 
L 222.747167 236.080867 
L 225.056829 237.185801 
L 227.371817 238.289714 
L 229.692163 239.392972 
L 232.017894 240.495887 
L 234.349039 241.598775 
L 236.685625 242.701794 
L 239.027677 243.80526 
L 241.37522 244.909335 
L 243.728281 246.014128 
L 246.086883 247.119903 
L 248.451051 248.22672 
L 250.820807 249.33474 
L 253.196176 250.444023 
L 255.57718 251.554783 
L 257.963843 252.666975 
L 260.356187 253.780815 
L 262.754236 254.896311 
L 265.158011 256.013575 
L 267.567536 257.132615 
L 269.982832 258.253542 
L 272.403923 259.376418 
L 274.830831 260.501251 
L 277.263577 261.628153 
" clip-path="url(#p395a86d71b)" style="fill: none; stroke: #00bfbf"/>
    <path d="M 176.466292 123.873414 
L 179.98061 177.935022 
L 182.416366 189.26405 
L 184.706401 194.65345 
L 186.95151 198.078149 
L 189.178987 200.614089 
L 191.3993 202.673468 
L 193.617333 204.448219 
L 195.835673 206.039778 
L 198.055825 207.506784 
L 200.278726 208.885587 
L 202.504993 210.199783 
L 204.735049 211.465447 
L 206.969201 212.69394 
L 209.207672 213.893371 
L 211.450634 215.069926 
L 213.69822 216.228066 
L 215.950539 217.371494 
L 218.207679 218.502849 
L 220.469714 219.624465 
L 222.736707 220.73807 
L 225.008712 221.845087 
L 227.285778 222.946789 
L 229.567949 224.044145 
L 231.855263 225.13792 
L 234.147756 226.228932 
L 236.445463 227.317694 
L 238.748413 228.404719 
L 241.056638 229.490523 
L 243.370166 230.575415 
L 245.689023 231.659706 
L 248.013236 232.743813 
L 250.34283 233.827892 
L 252.67783 234.912154 
L 255.01826 235.996914 
L 257.364143 237.082226 
L 259.715504 238.168356 
L 262.072365 239.25536 
L 264.434748 240.343451 
L 266.802677 241.432686 
L 269.176173 242.523228 
L 271.555259 243.615083 
L 273.939956 244.708465 
L 276.330288 245.80333 
L 278.726275 246.899891 
L 281.127939 247.998105 
L 283.535303 249.098083 
L 285.948387 250.199885 
L 288.367214 251.30357 
L 290.791806 252.409146 
" clip-path="url(#p395a86d71b)" style="fill: none; stroke: #00bfbf"/>
    <path d="M 190.401445 111.530653 
L 193.67204 168.500391 
L 196.055869 180.36792 
L 198.320763 185.974833 
L 200.549574 189.511517 
L 202.76473 192.111748 
L 204.974833 194.209756 
L 207.183895 196.007808 
L 209.394047 197.612786 
L 211.606526 199.086376 
L 213.822104 200.466841 
L 216.041291 201.779152 
L 218.264437 203.040149 
L 220.491796 204.261778 
L 222.723554 205.452657 
L 224.959856 206.619237 
L 227.200815 207.766253 
L 229.44652 208.897539 
L 231.697049 210.016017 
L 233.952464 211.123959 
L 236.21282 212.223282 
L 238.478164 213.315552 
L 240.74854 214.401985 
L 243.023986 215.48359 
L 245.304536 216.561334 
L 247.590224 217.635874 
L 249.881079 218.707924 
L 252.17713 219.777943 
L 254.478406 220.846441 
L 256.784931 221.913778 
L 259.096732 222.980365 
L 261.413832 224.046458 
L 263.736256 225.11237 
L 266.064027 226.178309 
L 268.397167 227.244482 
L 270.735699 228.311153 
L 273.079646 229.378375 
L 275.429029 230.446361 
L 277.783869 231.515268 
L 280.144189 232.585207 
L 282.510011 233.656234 
L 284.881354 234.728562 
L 287.258241 235.802196 
L 289.640693 236.877247 
L 292.02873 237.953772 
L 294.422375 239.031882 
L 296.821646 240.111687 
L 299.226567 241.193143 
L 301.637158 242.27636 
L 304.053439 243.36145 
" clip-path="url(#p395a86d71b)" style="fill: none; stroke: #00bfbf"/>
    <path d="M 204.113558 98.773277 
L 207.121229 159.03646 
L 209.44934 171.514456 
L 211.687386 177.369548 
L 213.898876 181.035326 
L 216.100995 183.71078 
L 218.300339 185.855251 
L 220.499983 187.682444 
L 222.701563 189.305335 
L 224.906029 190.789231 
L 227.113976 192.174537 
L 229.325798 193.487533 
L 231.541768 194.746166 
L 233.762083 195.963013 
L 235.98689 197.147192 
L 238.216301 198.305416 
L 240.450409 199.442895 
L 242.689285 200.563486 
L 244.932992 201.670348 
L 247.181582 202.765886 
L 249.4351 203.852158 
L 251.693587 204.93077 
L 253.957079 206.002977 
L 256.22561 207.069937 
L 258.499209 208.132607 
L 260.777906 209.191692 
L 263.061727 210.247951 
L 265.3507 211.301838 
L 267.644848 212.353963 
L 269.944196 213.404631 
L 272.248767 214.4543 
L 274.558583 215.503278 
L 276.873666 216.551821 
L 279.194039 217.600238 
L 281.519723 218.648685 
L 283.85074 219.697371 
L 286.187108 220.746553 
L 288.528852 221.796289 
L 290.875989 222.846786 
L 293.228543 223.898153 
L 295.586532 224.950498 
L 297.949977 226.003979 
L 300.318899 227.058602 
L 302.693317 228.114579 
L 305.073254 229.171864 
L 307.458727 230.230669 
L 309.849759 231.290949 
L 312.246369 232.352815 
L 314.648578 233.416323 
L 317.056405 234.481585 
" clip-path="url(#p395a86d71b)" style="fill: none; stroke: #00bfbf"/>
    <path d="M 217.616204 85.482244 
L 220.337248 149.504688 
L 222.605026 162.679708 
L 224.814174 168.819621 
L 227.007135 172.6349 
L 229.195393 175.398779 
L 231.383356 177.598857 
L 233.573083 179.462072 
L 235.765671 181.108283 
L 237.961758 182.606783 
L 240.161749 184.000492 
L 242.36591 185.317286 
L 244.574429 186.576205 
L 246.787442 187.790603 
L 249.005052 188.97014 
L 251.227342 190.121938 
L 253.454376 191.251527 
L 255.686209 192.363037 
L 257.922887 193.459759 
L 260.16445 194.544332 
L 262.410934 195.6188 
L 264.662371 196.68496 
L 266.918792 197.744108 
L 269.180223 198.797546 
L 271.44669 199.846172 
L 273.718219 200.890889 
L 275.994833 201.932298 
L 278.276554 202.971053 
L 280.563405 204.007708 
L 282.855408 205.042667 
L 285.152584 206.076283 
L 287.454952 207.109012 
L 289.762534 208.14106 
L 292.075351 209.172732 
L 294.393421 210.204284 
L 296.716765 211.235872 
L 299.045403 212.267753 
L 301.379355 213.300032 
L 303.718639 214.332917 
L 306.063277 215.366463 
L 308.413286 216.400879 
L 310.768687 217.436272 
L 313.1295 218.472697 
L 315.495742 219.510314 
L 317.867436 220.549128 
L 320.244599 221.589299 
L 322.627253 222.630832 
L 325.015416 223.673835 
L 327.409107 224.718368 
L 329.808347 225.764486 
" clip-path="url(#p395a86d71b)" style="fill: none; stroke: #00bfbf"/>
    <path d="M 230.924597 71.503624 
L 233.329487 139.855726 
L 235.531249 153.833109 
L 237.709009 160.302382 
L 239.881997 164.29186 
L 242.055421 167.159995 
L 244.231285 169.426807 
L 246.410527 171.334242 
L 248.593654 173.010124 
L 250.780962 174.528383 
L 252.972642 175.934728 
L 255.168824 177.258965 
L 257.369601 178.521263 
L 259.575044 179.735938 
L 261.785208 180.913242 
L 264.000138 182.060799 
L 266.219873 183.18445 
L 268.444446 184.288652 
L 270.673886 185.376921 
L 272.908222 186.451979 
L 275.147477 187.516107 
L 277.391676 188.571188 
L 279.640841 189.618611 
L 281.894993 190.659718 
L 284.154153 191.6955 
L 286.418342 192.726855 
L 288.687578 193.75458 
L 290.961883 194.779222 
L 293.241275 195.801383 
L 295.525772 196.821562 
L 297.815394 197.840162 
L 300.11016 198.857485 
L 302.410087 199.873984 
L 304.715196 200.889813 
L 307.025503 201.905325 
L 309.34103 202.920624 
L 311.661791 203.936067 
L 313.987807 204.951707 
L 316.319097 205.967751 
L 318.65568 206.984302 
L 320.99757 208.001619 
L 323.344792 209.019656 
L 325.697359 210.03867 
L 328.055295 211.058616 
L 330.418614 212.079753 
L 332.787337 213.102036 
L 335.161484 214.125572 
L 337.541071 215.150468 
L 339.926121 216.17673 
L 342.316647 217.204518 
" clip-path="url(#p395a86d71b)" style="fill: none; stroke: #00bfbf"/>
   </g>
  </g>
 </g>
 <defs>
  <clipPath id="p395a86d71b">
   <rect x="103.104" y="41.472" width="266.112" height="266.112"/>
  </clipPath>
 </defs>
</svg>
