<?xml version="1.0" encoding="utf-8" standalone="no"?>
<!DOCTYPE svg PUBLIC "-//W3C//DTD SVG 1.1//EN"
  "http://www.w3.org/Graphics/SVG/1.1/DTD/svg11.dtd">
<svg xmlns:xlink="http://www.w3.org/1999/xlink" width="460.8pt" height="345.6pt" viewBox="0 0 460.8 345.6" xmlns="http://www.w3.org/2000/svg" version="1.1">
 <metadata>
  <rdf:RDF xmlns:dc="http://purl.org/dc/elements/1.1/" xmlns:cc="http://creativecommons.org/ns#" xmlns:rdf="http://www.w3.org/1999/02/22-rdf-syntax-ns#">
   <cc:Work>
    <dc:type rdf:resource="http://purl.org/dc/dcmitype/StillImage"/>
    <dc:date>2022-08-16T23:18:06.613062</dc:date>
    <dc:format>image/svg+xml</dc:format>
    <dc:creator>
     <cc:Agent>
      <dc:title>Matplotlib v3.5.2, https://matplotlib.org/</dc:title>
     </cc:Agent>
    </dc:creator>
   </cc:Work>
  </rdf:RDF>
 </metadata>
 <defs>
  <style type="text/css">*{stroke-linejoin: round; stroke-linecap: butt}</style>
 </defs>
 <g id="figure_1">
  <g id="patch_1">
   <path d="M 0 345.6 
L 460.8 345.6 
L 460.8 0 
L 0 0 
z
" style="fill: #ffffff"/>
  </g>
  <g id="patch_2">
   <path d="M 103.104 307.584 
L 369.216 307.584 
L 369.216 41.472 
L 103.104 41.472 
z
" style="fill: #ffffff"/>
  </g>
  <g id="pane3d_1">
   <g id="patch_3">
    <path d="M 135.550332 199.443096 
L 286.77378 171.613366 
L 288.784802 65.078897 
L 130.937443 90.415602 
" style="fill: #f2f2f2; opacity: 0.5; stroke: #f2f2f2; stroke-linejoin: miter"/>
   </g>
  </g>
  <g id="pane3d_2">
   <g id="patch_4">
    <path d="M 286.77378 171.613366 
L 350.437908 252.826739 
L 355.656319 139.221033 
L 288.784802 65.078897 
" style="fill: #e6e6e6; opacity: 0.5; stroke: #e6e6e6; stroke-linejoin: miter"/>
   </g>
  </g>
  <g id="pane3d_3">
   <g id="patch_5">
    <path d="M 135.550332 199.443096 
L 186.241155 286.470725 
L 350.437908 252.826739 
L 286.77378 171.613366 
" style="fill: #ececec; opacity: 0.5; stroke: #ececec; stroke-linejoin: miter"/>
   </g>
  </g>
  <g id="axis3d_1">
   <g id="line2d_1">
    <path d="M 135.550332 199.443096 
L 186.241155 286.470725 
" style="fill: none; stroke: #000000; stroke-width: 0.8; stroke-linecap: square"/>
   </g>
   <g id="text_1">
    <!-- Input Power (uW) -->
    <g transform="translate(99.937757 235.942121)rotate(-300.219438)scale(0.1 -0.1)">
     <defs>
      <path id="DejaVuSans-49" d="M 628 4666 
L 1259 4666 
L 1259 0 
L 628 0 
L 628 4666 
z
" transform="scale(0.015625)"/>
      <path id="DejaVuSans-6e" d="M 3513 2113 
L 3513 0 
L 2938 0 
L 2938 2094 
Q 2938 2591 2744 2837 
Q 2550 3084 2163 3084 
Q 1697 3084 1428 2787 
Q 1159 2491 1159 1978 
L 1159 0 
L 581 0 
L 581 3500 
L 1159 3500 
L 1159 2956 
Q 1366 3272 1645 3428 
Q 1925 3584 2291 3584 
Q 2894 3584 3203 3211 
Q 3513 2838 3513 2113 
z
" transform="scale(0.015625)"/>
      <path id="DejaVuSans-70" d="M 1159 525 
L 1159 -1331 
L 581 -1331 
L 581 3500 
L 1159 3500 
L 1159 2969 
Q 1341 3281 1617 3432 
Q 1894 3584 2278 3584 
Q 2916 3584 3314 3078 
Q 3713 2572 3713 1747 
Q 3713 922 3314 415 
Q 2916 -91 2278 -91 
Q 1894 -91 1617 61 
Q 1341 213 1159 525 
z
M 3116 1747 
Q 3116 2381 2855 2742 
Q 2594 3103 2138 3103 
Q 1681 3103 1420 2742 
Q 1159 2381 1159 1747 
Q 1159 1113 1420 752 
Q 1681 391 2138 391 
Q 2594 391 2855 752 
Q 3116 1113 3116 1747 
z
" transform="scale(0.015625)"/>
      <path id="DejaVuSans-75" d="M 544 1381 
L 544 3500 
L 1119 3500 
L 1119 1403 
Q 1119 906 1312 657 
Q 1506 409 1894 409 
Q 2359 409 2629 706 
Q 2900 1003 2900 1516 
L 2900 3500 
L 3475 3500 
L 3475 0 
L 2900 0 
L 2900 538 
Q 2691 219 2414 64 
Q 2138 -91 1772 -91 
Q 1169 -91 856 284 
Q 544 659 544 1381 
z
M 1991 3584 
L 1991 3584 
z
" transform="scale(0.015625)"/>
      <path id="DejaVuSans-74" d="M 1172 4494 
L 1172 3500 
L 2356 3500 
L 2356 3053 
L 1172 3053 
L 1172 1153 
Q 1172 725 1289 603 
Q 1406 481 1766 481 
L 2356 481 
L 2356 0 
L 1766 0 
Q 1100 0 847 248 
Q 594 497 594 1153 
L 594 3053 
L 172 3053 
L 172 3500 
L 594 3500 
L 594 4494 
L 1172 4494 
z
" transform="scale(0.015625)"/>
      <path id="DejaVuSans-20" transform="scale(0.015625)"/>
      <path id="DejaVuSans-50" d="M 1259 4147 
L 1259 2394 
L 2053 2394 
Q 2494 2394 2734 2622 
Q 2975 2850 2975 3272 
Q 2975 3691 2734 3919 
Q 2494 4147 2053 4147 
L 1259 4147 
z
M 628 4666 
L 2053 4666 
Q 2838 4666 3239 4311 
Q 3641 3956 3641 3272 
Q 3641 2581 3239 2228 
Q 2838 1875 2053 1875 
L 1259 1875 
L 1259 0 
L 628 0 
L 628 4666 
z
" transform="scale(0.015625)"/>
      <path id="DejaVuSans-6f" d="M 1959 3097 
Q 1497 3097 1228 2736 
Q 959 2375 959 1747 
Q 959 1119 1226 758 
Q 1494 397 1959 397 
Q 2419 397 2687 759 
Q 2956 1122 2956 1747 
Q 2956 2369 2687 2733 
Q 2419 3097 1959 3097 
z
M 1959 3584 
Q 2709 3584 3137 3096 
Q 3566 2609 3566 1747 
Q 3566 888 3137 398 
Q 2709 -91 1959 -91 
Q 1206 -91 779 398 
Q 353 888 353 1747 
Q 353 2609 779 3096 
Q 1206 3584 1959 3584 
z
" transform="scale(0.015625)"/>
      <path id="DejaVuSans-77" d="M 269 3500 
L 844 3500 
L 1563 769 
L 2278 3500 
L 2956 3500 
L 3675 769 
L 4391 3500 
L 4966 3500 
L 4050 0 
L 3372 0 
L 2619 2869 
L 1863 0 
L 1184 0 
L 269 3500 
z
" transform="scale(0.015625)"/>
      <path id="DejaVuSans-65" d="M 3597 1894 
L 3597 1613 
L 953 1613 
Q 991 1019 1311 708 
Q 1631 397 2203 397 
Q 2534 397 2845 478 
Q 3156 559 3463 722 
L 3463 178 
Q 3153 47 2828 -22 
Q 2503 -91 2169 -91 
Q 1331 -91 842 396 
Q 353 884 353 1716 
Q 353 2575 817 3079 
Q 1281 3584 2069 3584 
Q 2775 3584 3186 3129 
Q 3597 2675 3597 1894 
z
M 3022 2063 
Q 3016 2534 2758 2815 
Q 2500 3097 2075 3097 
Q 1594 3097 1305 2825 
Q 1016 2553 972 2059 
L 3022 2063 
z
" transform="scale(0.015625)"/>
      <path id="DejaVuSans-72" d="M 2631 2963 
Q 2534 3019 2420 3045 
Q 2306 3072 2169 3072 
Q 1681 3072 1420 2755 
Q 1159 2438 1159 1844 
L 1159 0 
L 581 0 
L 581 3500 
L 1159 3500 
L 1159 2956 
Q 1341 3275 1631 3429 
Q 1922 3584 2338 3584 
Q 2397 3584 2469 3576 
Q 2541 3569 2628 3553 
L 2631 2963 
z
" transform="scale(0.015625)"/>
      <path id="DejaVuSans-28" d="M 1984 4856 
Q 1566 4138 1362 3434 
Q 1159 2731 1159 2009 
Q 1159 1288 1364 580 
Q 1569 -128 1984 -844 
L 1484 -844 
Q 1016 -109 783 600 
Q 550 1309 550 2009 
Q 550 2706 781 3412 
Q 1013 4119 1484 4856 
L 1984 4856 
z
" transform="scale(0.015625)"/>
      <path id="DejaVuSans-57" d="M 213 4666 
L 850 4666 
L 1831 722 
L 2809 4666 
L 3519 4666 
L 4500 722 
L 5478 4666 
L 6119 4666 
L 4947 0 
L 4153 0 
L 3169 4050 
L 2175 0 
L 1381 0 
L 213 4666 
z
" transform="scale(0.015625)"/>
      <path id="DejaVuSans-29" d="M 513 4856 
L 1013 4856 
Q 1481 4119 1714 3412 
Q 1947 2706 1947 2009 
Q 1947 1309 1714 600 
Q 1481 -109 1013 -844 
L 513 -844 
Q 928 -128 1133 580 
Q 1338 1288 1338 2009 
Q 1338 2731 1133 3434 
Q 928 4138 513 4856 
z
" transform="scale(0.015625)"/>
     </defs>
     <use xlink:href="#DejaVuSans-49"/>
     <use xlink:href="#DejaVuSans-6e" x="29.492188"/>
     <use xlink:href="#DejaVuSans-70" x="92.871094"/>
     <use xlink:href="#DejaVuSans-75" x="156.347656"/>
     <use xlink:href="#DejaVuSans-74" x="219.726562"/>
     <use xlink:href="#DejaVuSans-20" x="258.935547"/>
     <use xlink:href="#DejaVuSans-50" x="290.722656"/>
     <use xlink:href="#DejaVuSans-6f" x="347.400391"/>
     <use xlink:href="#DejaVuSans-77" x="408.582031"/>
     <use xlink:href="#DejaVuSans-65" x="490.369141"/>
     <use xlink:href="#DejaVuSans-72" x="551.892578"/>
     <use xlink:href="#DejaVuSans-20" x="593.005859"/>
     <use xlink:href="#DejaVuSans-28" x="624.792969"/>
     <use xlink:href="#DejaVuSans-75" x="663.806641"/>
     <use xlink:href="#DejaVuSans-57" x="727.185547"/>
     <use xlink:href="#DejaVuSans-29" x="826.0625"/>
    </g>
   </g>
   <g id="Line3DCollection_1">
    <path d="M 138.49661 204.501361 
L 290.485537 176.348283 
L 292.668209 69.384528 
" style="fill: none; stroke: #b0b0b0; stroke-width: 0.8"/>
    <path d="M 145.409752 216.370065 
L 299.18924 187.451193 
L 301.781843 79.489043 
" style="fill: none; stroke: #b0b0b0; stroke-width: 0.8"/>
    <path d="M 152.515458 228.569367 
L 308.127271 198.853023 
L 311.151694 89.877633 
" style="fill: none; stroke: #b0b0b0; stroke-width: 0.8"/>
    <path d="M 159.821886 241.113277 
L 317.30922 210.56601 
L 320.788721 100.562448 
" style="fill: none; stroke: #b0b0b0; stroke-width: 0.8"/>
    <path d="M 167.337664 254.016606 
L 326.745212 222.603067 
L 330.704517 111.556342 
" style="fill: none; stroke: #b0b0b0; stroke-width: 0.8"/>
    <path d="M 175.071921 267.295025 
L 336.445938 234.977832 
L 340.911356 122.872921 
" style="fill: none; stroke: #b0b0b0; stroke-width: 0.8"/>
    <path d="M 183.034323 280.965131 
L 346.422696 247.704719 
L 351.422242 134.526605 
" style="fill: none; stroke: #b0b0b0; stroke-width: 0.8"/>
   </g>
   <g id="xtick_1">
    <g id="line2d_2">
     <path d="M 139.753135 204.268614 
L 135.981529 204.967233 
" style="fill: none; stroke: #000000; stroke-width: 0.8; stroke-linecap: square"/>
    </g>
    <g id="text_2">
     <!-- 35000 -->
     <g transform="translate(109.922383 223.202083)scale(0.1 -0.1)">
      <defs>
       <path id="DejaVuSans-33" d="M 2597 2516 
Q 3050 2419 3304 2112 
Q 3559 1806 3559 1356 
Q 3559 666 3084 287 
Q 2609 -91 1734 -91 
Q 1441 -91 1130 -33 
Q 819 25 488 141 
L 488 750 
Q 750 597 1062 519 
Q 1375 441 1716 441 
Q 2309 441 2620 675 
Q 2931 909 2931 1356 
Q 2931 1769 2642 2001 
Q 2353 2234 1838 2234 
L 1294 2234 
L 1294 2753 
L 1863 2753 
Q 2328 2753 2575 2939 
Q 2822 3125 2822 3475 
Q 2822 3834 2567 4026 
Q 2313 4219 1838 4219 
Q 1578 4219 1281 4162 
Q 984 4106 628 3988 
L 628 4550 
Q 988 4650 1302 4700 
Q 1616 4750 1894 4750 
Q 2613 4750 3031 4423 
Q 3450 4097 3450 3541 
Q 3450 3153 3228 2886 
Q 3006 2619 2597 2516 
z
" transform="scale(0.015625)"/>
       <path id="DejaVuSans-35" d="M 691 4666 
L 3169 4666 
L 3169 4134 
L 1269 4134 
L 1269 2991 
Q 1406 3038 1543 3061 
Q 1681 3084 1819 3084 
Q 2600 3084 3056 2656 
Q 3513 2228 3513 1497 
Q 3513 744 3044 326 
Q 2575 -91 1722 -91 
Q 1428 -91 1123 -41 
Q 819 9 494 109 
L 494 744 
Q 775 591 1075 516 
Q 1375 441 1709 441 
Q 2250 441 2565 725 
Q 2881 1009 2881 1497 
Q 2881 1984 2565 2268 
Q 2250 2553 1709 2553 
Q 1456 2553 1204 2497 
Q 953 2441 691 2322 
L 691 4666 
z
" transform="scale(0.015625)"/>
       <path id="DejaVuSans-30" d="M 2034 4250 
Q 1547 4250 1301 3770 
Q 1056 3291 1056 2328 
Q 1056 1369 1301 889 
Q 1547 409 2034 409 
Q 2525 409 2770 889 
Q 3016 1369 3016 2328 
Q 3016 3291 2770 3770 
Q 2525 4250 2034 4250 
z
M 2034 4750 
Q 2819 4750 3233 4129 
Q 3647 3509 3647 2328 
Q 3647 1150 3233 529 
Q 2819 -91 2034 -91 
Q 1250 -91 836 529 
Q 422 1150 422 2328 
Q 422 3509 836 4129 
Q 1250 4750 2034 4750 
z
" transform="scale(0.015625)"/>
      </defs>
      <use xlink:href="#DejaVuSans-33"/>
      <use xlink:href="#DejaVuSans-35" x="63.623047"/>
      <use xlink:href="#DejaVuSans-30" x="127.246094"/>
      <use xlink:href="#DejaVuSans-30" x="190.869141"/>
      <use xlink:href="#DejaVuSans-30" x="254.492188"/>
     </g>
    </g>
   </g>
   <g id="xtick_2">
    <g id="line2d_3">
     <path d="M 146.681644 216.13088 
L 142.863883 216.848826 
" style="fill: none; stroke: #000000; stroke-width: 0.8; stroke-linecap: square"/>
    </g>
    <g id="text_3">
     <!-- 37500 -->
     <g transform="translate(116.656442 235.214235)scale(0.1 -0.1)">
      <defs>
       <path id="DejaVuSans-37" d="M 525 4666 
L 3525 4666 
L 3525 4397 
L 1831 0 
L 1172 0 
L 2766 4134 
L 525 4134 
L 525 4666 
z
" transform="scale(0.015625)"/>
      </defs>
      <use xlink:href="#DejaVuSans-33"/>
      <use xlink:href="#DejaVuSans-37" x="63.623047"/>
      <use xlink:href="#DejaVuSans-35" x="127.246094"/>
      <use xlink:href="#DejaVuSans-30" x="190.869141"/>
      <use xlink:href="#DejaVuSans-30" x="254.492188"/>
     </g>
    </g>
   </g>
   <g id="xtick_3">
    <g id="line2d_4">
     <path d="M 153.803091 228.323475 
L 149.938049 229.061561 
" style="fill: none; stroke: #000000; stroke-width: 0.8; stroke-linecap: square"/>
    </g>
    <g id="text_4">
     <!-- 40000 -->
     <g transform="translate(123.577933 247.560726)scale(0.1 -0.1)">
      <defs>
       <path id="DejaVuSans-34" d="M 2419 4116 
L 825 1625 
L 2419 1625 
L 2419 4116 
z
M 2253 4666 
L 3047 4666 
L 3047 1625 
L 3713 1625 
L 3713 1100 
L 3047 1100 
L 3047 0 
L 2419 0 
L 2419 1100 
L 313 1100 
L 313 1709 
L 2253 4666 
z
" transform="scale(0.015625)"/>
      </defs>
      <use xlink:href="#DejaVuSans-34"/>
      <use xlink:href="#DejaVuSans-30" x="63.623047"/>
      <use xlink:href="#DejaVuSans-30" x="127.246094"/>
      <use xlink:href="#DejaVuSans-30" x="190.869141"/>
      <use xlink:href="#DejaVuSans-30" x="254.492188"/>
     </g>
    </g>
   </g>
   <g id="xtick_4">
    <g id="line2d_5">
     <path d="M 161.12565 240.860391 
L 157.21216 241.619477 
" style="fill: none; stroke: #000000; stroke-width: 0.8; stroke-linecap: square"/>
    </g>
    <g id="text_5">
     <!-- 42500 -->
     <g transform="translate(130.694791 260.255712)scale(0.1 -0.1)">
      <defs>
       <path id="DejaVuSans-32" d="M 1228 531 
L 3431 531 
L 3431 0 
L 469 0 
L 469 531 
Q 828 903 1448 1529 
Q 2069 2156 2228 2338 
Q 2531 2678 2651 2914 
Q 2772 3150 2772 3378 
Q 2772 3750 2511 3984 
Q 2250 4219 1831 4219 
Q 1534 4219 1204 4116 
Q 875 4013 500 3803 
L 500 4441 
Q 881 4594 1212 4672 
Q 1544 4750 1819 4750 
Q 2544 4750 2975 4387 
Q 3406 4025 3406 3419 
Q 3406 3131 3298 2873 
Q 3191 2616 2906 2266 
Q 2828 2175 2409 1742 
Q 1991 1309 1228 531 
z
" transform="scale(0.015625)"/>
      </defs>
      <use xlink:href="#DejaVuSans-34"/>
      <use xlink:href="#DejaVuSans-32" x="63.623047"/>
      <use xlink:href="#DejaVuSans-35" x="127.246094"/>
      <use xlink:href="#DejaVuSans-30" x="190.869141"/>
      <use xlink:href="#DejaVuSans-30" x="254.492188"/>
     </g>
    </g>
   </g>
   <g id="xtick_5">
    <g id="line2d_6">
     <path d="M 168.65796 253.756423 
L 164.694814 254.537417 
" style="fill: none; stroke: #000000; stroke-width: 0.8; stroke-linecap: square"/>
    </g>
    <g id="text_6">
     <!-- 45000 -->
     <g transform="translate(138.015408 273.31416)scale(0.1 -0.1)">
      <use xlink:href="#DejaVuSans-34"/>
      <use xlink:href="#DejaVuSans-35" x="63.623047"/>
      <use xlink:href="#DejaVuSans-30" x="127.246094"/>
      <use xlink:href="#DejaVuSans-30" x="190.869141"/>
      <use xlink:href="#DejaVuSans-30" x="254.492188"/>
     </g>
    </g>
   </g>
   <g id="xtick_6">
    <g id="line2d_7">
     <path d="M 176.409167 267.027224 
L 172.395108 267.831091 
" style="fill: none; stroke: #000000; stroke-width: 0.8; stroke-linecap: square"/>
    </g>
    <g id="text_7">
     <!-- 47500 -->
     <g transform="translate(145.54866 286.751905)scale(0.1 -0.1)">
      <use xlink:href="#DejaVuSans-34"/>
      <use xlink:href="#DejaVuSans-37" x="63.623047"/>
      <use xlink:href="#DejaVuSans-35" x="127.246094"/>
      <use xlink:href="#DejaVuSans-30" x="190.869141"/>
      <use xlink:href="#DejaVuSans-30" x="254.492188"/>
     </g>
    </g>
   </g>
   <g id="xtick_7">
    <g id="line2d_8">
     <path d="M 184.388951 280.689374 
L 180.32268 281.517131 
" style="fill: none; stroke: #000000; stroke-width: 0.8; stroke-linecap: square"/>
    </g>
    <g id="text_8">
     <!-- 50000 -->
     <g transform="translate(153.303948 300.585716)scale(0.1 -0.1)">
      <use xlink:href="#DejaVuSans-35"/>
      <use xlink:href="#DejaVuSans-30" x="63.623047"/>
      <use xlink:href="#DejaVuSans-30" x="127.246094"/>
      <use xlink:href="#DejaVuSans-30" x="190.869141"/>
      <use xlink:href="#DejaVuSans-30" x="254.492188"/>
     </g>
    </g>
   </g>
  </g>
  <g id="axis3d_2">
   <g id="line2d_9">
    <path d="M 350.437908 252.826739 
L 186.241155 286.470725 
" style="fill: none; stroke: #000000; stroke-width: 0.8; stroke-linecap: square"/>
   </g>
   <g id="text_9">
    <!-- # of cores -->
    <g transform="translate(259.260413 322.942551)rotate(-11.579651)scale(0.1 -0.1)">
     <defs>
      <path id="DejaVuSans-23" d="M 3272 2816 
L 2363 2816 
L 2100 1772 
L 3016 1772 
L 3272 2816 
z
M 2803 4594 
L 2478 3297 
L 3391 3297 
L 3719 4594 
L 4219 4594 
L 3897 3297 
L 4872 3297 
L 4872 2816 
L 3775 2816 
L 3519 1772 
L 4513 1772 
L 4513 1294 
L 3397 1294 
L 3072 0 
L 2572 0 
L 2894 1294 
L 1978 1294 
L 1656 0 
L 1153 0 
L 1478 1294 
L 494 1294 
L 494 1772 
L 1594 1772 
L 1856 2816 
L 850 2816 
L 850 3297 
L 1978 3297 
L 2297 4594 
L 2803 4594 
z
" transform="scale(0.015625)"/>
      <path id="DejaVuSans-66" d="M 2375 4863 
L 2375 4384 
L 1825 4384 
Q 1516 4384 1395 4259 
Q 1275 4134 1275 3809 
L 1275 3500 
L 2222 3500 
L 2222 3053 
L 1275 3053 
L 1275 0 
L 697 0 
L 697 3053 
L 147 3053 
L 147 3500 
L 697 3500 
L 697 3744 
Q 697 4328 969 4595 
Q 1241 4863 1831 4863 
L 2375 4863 
z
" transform="scale(0.015625)"/>
      <path id="DejaVuSans-63" d="M 3122 3366 
L 3122 2828 
Q 2878 2963 2633 3030 
Q 2388 3097 2138 3097 
Q 1578 3097 1268 2742 
Q 959 2388 959 1747 
Q 959 1106 1268 751 
Q 1578 397 2138 397 
Q 2388 397 2633 464 
Q 2878 531 3122 666 
L 3122 134 
Q 2881 22 2623 -34 
Q 2366 -91 2075 -91 
Q 1284 -91 818 406 
Q 353 903 353 1747 
Q 353 2603 823 3093 
Q 1294 3584 2113 3584 
Q 2378 3584 2631 3529 
Q 2884 3475 3122 3366 
z
" transform="scale(0.015625)"/>
      <path id="DejaVuSans-73" d="M 2834 3397 
L 2834 2853 
Q 2591 2978 2328 3040 
Q 2066 3103 1784 3103 
Q 1356 3103 1142 2972 
Q 928 2841 928 2578 
Q 928 2378 1081 2264 
Q 1234 2150 1697 2047 
L 1894 2003 
Q 2506 1872 2764 1633 
Q 3022 1394 3022 966 
Q 3022 478 2636 193 
Q 2250 -91 1575 -91 
Q 1294 -91 989 -36 
Q 684 19 347 128 
L 347 722 
Q 666 556 975 473 
Q 1284 391 1588 391 
Q 1994 391 2212 530 
Q 2431 669 2431 922 
Q 2431 1156 2273 1281 
Q 2116 1406 1581 1522 
L 1381 1569 
Q 847 1681 609 1914 
Q 372 2147 372 2553 
Q 372 3047 722 3315 
Q 1072 3584 1716 3584 
Q 2034 3584 2315 3537 
Q 2597 3491 2834 3397 
z
" transform="scale(0.015625)"/>
     </defs>
     <use xlink:href="#DejaVuSans-23"/>
     <use xlink:href="#DejaVuSans-20" x="83.789062"/>
     <use xlink:href="#DejaVuSans-6f" x="115.576172"/>
     <use xlink:href="#DejaVuSans-66" x="176.757812"/>
     <use xlink:href="#DejaVuSans-20" x="211.962891"/>
     <use xlink:href="#DejaVuSans-63" x="243.75"/>
     <use xlink:href="#DejaVuSans-6f" x="298.730469"/>
     <use xlink:href="#DejaVuSans-72" x="359.912109"/>
     <use xlink:href="#DejaVuSans-65" x="398.775391"/>
     <use xlink:href="#DejaVuSans-73" x="460.298828"/>
    </g>
   </g>
   <g id="Line3DCollection_2">
    <path d="M 141.310411 88.750595 
L 145.474711 197.616708 
L 197.049978 284.255992 
" style="fill: none; stroke: #b0b0b0; stroke-width: 0.8"/>
    <path d="M 181.515524 82.297113 
L 183.958773 190.534466 
L 238.919681 275.676872 
" style="fill: none; stroke: #b0b0b0; stroke-width: 0.8"/>
    <path d="M 221.033097 75.953991 
L 221.812109 183.568297 
L 280.035059 267.252313 
" style="fill: none; stroke: #b0b0b0; stroke-width: 0.8"/>
    <path d="M 259.880617 69.718422 
L 259.050099 176.71537 
L 320.416316 258.978176 
" style="fill: none; stroke: #b0b0b0; stroke-width: 0.8"/>
   </g>
   <g id="xtick_8">
    <g id="line2d_10">
     <path d="M 196.596039 283.493437 
L 197.960062 285.784807 
" style="fill: none; stroke: #000000; stroke-width: 0.8; stroke-linecap: square"/>
    </g>
    <g id="text_10">
     <!-- 1 -->
     <g transform="translate(198.767791 309.037795)scale(0.1 -0.1)">
      <defs>
       <path id="DejaVuSans-31" d="M 794 531 
L 1825 531 
L 1825 4091 
L 703 3866 
L 703 4441 
L 1819 4666 
L 2450 4666 
L 2450 531 
L 3481 531 
L 3481 0 
L 794 0 
L 794 531 
z
" transform="scale(0.015625)"/>
      </defs>
      <use xlink:href="#DejaVuSans-31"/>
     </g>
    </g>
   </g>
   <g id="xtick_9">
    <g id="line2d_11">
     <path d="M 238.436343 274.928112 
L 239.888684 277.177998 
" style="fill: none; stroke: #000000; stroke-width: 0.8; stroke-linecap: square"/>
    </g>
    <g id="text_11">
     <!-- 3 -->
     <g transform="translate(240.78122 300.263162)scale(0.1 -0.1)">
      <use xlink:href="#DejaVuSans-33"/>
     </g>
    </g>
   </g>
   <g id="xtick_10">
    <g id="line2d_12">
     <path d="M 279.523451 266.516977 
L 281.060718 268.726495 
" style="fill: none; stroke: #000000; stroke-width: 0.8; stroke-linecap: square"/>
    </g>
    <g id="text_12">
     <!-- 5 -->
     <g transform="translate(282.034359 291.647318)scale(0.1 -0.1)">
      <use xlink:href="#DejaVuSans-35"/>
     </g>
    </g>
   </g>
   <g id="xtick_11">
    <g id="line2d_13">
     <path d="M 319.877518 258.255905 
L 321.49646 260.426134 
" style="fill: none; stroke: #000000; stroke-width: 0.8; stroke-linecap: square"/>
    </g>
    <g id="text_13">
     <!-- 7 -->
     <g transform="translate(322.54766 283.185991)scale(0.1 -0.1)">
      <use xlink:href="#DejaVuSans-37"/>
     </g>
    </g>
   </g>
  </g>
  <g id="axis3d_3">
   <g id="line2d_14">
    <path d="M 350.437908 252.826739 
L 355.656319 139.221033 
" style="fill: none; stroke: #000000; stroke-width: 0.8; stroke-linecap: square"/>
   </g>
   <g id="text_14">
    <!-- Time (us) -->
    <g transform="translate(407.680961 233.292445)rotate(-87.370001)scale(0.1 -0.1)">
     <defs>
      <path id="DejaVuSans-54" d="M -19 4666 
L 3928 4666 
L 3928 4134 
L 2272 4134 
L 2272 0 
L 1638 0 
L 1638 4134 
L -19 4134 
L -19 4666 
z
" transform="scale(0.015625)"/>
      <path id="DejaVuSans-69" d="M 603 3500 
L 1178 3500 
L 1178 0 
L 603 0 
L 603 3500 
z
M 603 4863 
L 1178 4863 
L 1178 4134 
L 603 4134 
L 603 4863 
z
" transform="scale(0.015625)"/>
      <path id="DejaVuSans-6d" d="M 3328 2828 
Q 3544 3216 3844 3400 
Q 4144 3584 4550 3584 
Q 5097 3584 5394 3201 
Q 5691 2819 5691 2113 
L 5691 0 
L 5113 0 
L 5113 2094 
Q 5113 2597 4934 2840 
Q 4756 3084 4391 3084 
Q 3944 3084 3684 2787 
Q 3425 2491 3425 1978 
L 3425 0 
L 2847 0 
L 2847 2094 
Q 2847 2600 2669 2842 
Q 2491 3084 2119 3084 
Q 1678 3084 1418 2786 
Q 1159 2488 1159 1978 
L 1159 0 
L 581 0 
L 581 3500 
L 1159 3500 
L 1159 2956 
Q 1356 3278 1631 3431 
Q 1906 3584 2284 3584 
Q 2666 3584 2933 3390 
Q 3200 3197 3328 2828 
z
" transform="scale(0.015625)"/>
     </defs>
     <use xlink:href="#DejaVuSans-54"/>
     <use xlink:href="#DejaVuSans-69" x="57.958984"/>
     <use xlink:href="#DejaVuSans-6d" x="85.742188"/>
     <use xlink:href="#DejaVuSans-65" x="183.154297"/>
     <use xlink:href="#DejaVuSans-20" x="244.677734"/>
     <use xlink:href="#DejaVuSans-28" x="276.464844"/>
     <use xlink:href="#DejaVuSans-75" x="315.478516"/>
     <use xlink:href="#DejaVuSans-73" x="378.857422"/>
     <use xlink:href="#DejaVuSans-29" x="430.957031"/>
    </g>
   </g>
   <g id="Line3DCollection_3">
    <path d="M 350.537667 250.654971 
L 286.812383 169.568395 
L 135.46191 197.35321 
" style="fill: none; stroke: #b0b0b0; stroke-width: 0.8"/>
    <path d="M 351.61306 227.243491 
L 287.22812 147.544577 
L 134.509321 174.838385 
" style="fill: none; stroke: #b0b0b0; stroke-width: 0.8"/>
    <path d="M 352.709535 203.37303 
L 287.651269 125.128134 
L 133.53917 151.908484 
" style="fill: none; stroke: #b0b0b0; stroke-width: 0.8"/>
    <path d="M 353.82772 179.029956 
L 288.082029 102.308472 
L 132.550968 128.55192 
" style="fill: none; stroke: #b0b0b0; stroke-width: 0.8"/>
    <path d="M 354.968265 154.200094 
L 288.520609 79.074613 
L 131.544205 104.756674 
" style="fill: none; stroke: #b0b0b0; stroke-width: 0.8"/>
   </g>
   <g id="xtick_12">
    <g id="line2d_15">
     <path d="M 349.978445 249.943395 
L 351.658741 252.081471 
" style="fill: none; stroke: #000000; stroke-width: 0.8; stroke-linecap: square"/>
    </g>
    <g id="text_15">
     <!-- 0 -->
     <g transform="translate(366.410175 262.975461)scale(0.1 -0.1)">
      <use xlink:href="#DejaVuSans-30"/>
     </g>
    </g>
   </g>
   <g id="xtick_13">
    <g id="line2d_16">
     <path d="M 351.047564 226.543492 
L 352.746736 228.646812 
" style="fill: none; stroke: #000000; stroke-width: 0.8; stroke-linecap: square"/>
    </g>
    <g id="text_16">
     <!-- 2000 -->
     <g transform="translate(358.133381 239.487418)scale(0.1 -0.1)">
      <use xlink:href="#DejaVuSans-32"/>
      <use xlink:href="#DejaVuSans-30" x="63.623047"/>
      <use xlink:href="#DejaVuSans-30" x="127.246094"/>
      <use xlink:href="#DejaVuSans-30" x="190.869141"/>
     </g>
    </g>
   </g>
   <g id="xtick_14">
    <g id="line2d_17">
     <path d="M 352.137627 202.685201 
L 353.856094 204.751984 
" style="fill: none; stroke: #000000; stroke-width: 0.8; stroke-linecap: square"/>
    </g>
    <g id="text_17">
     <!-- 4000 -->
     <g transform="translate(359.425307 215.536457)scale(0.1 -0.1)">
      <use xlink:href="#DejaVuSans-34"/>
      <use xlink:href="#DejaVuSans-30" x="63.623047"/>
      <use xlink:href="#DejaVuSans-30" x="127.246094"/>
      <use xlink:href="#DejaVuSans-30" x="190.869141"/>
     </g>
    </g>
   </g>
   <g id="xtick_15">
    <g id="line2d_18">
     <path d="M 353.249254 178.35492 
L 354.987452 180.383297 
" style="fill: none; stroke: #000000; stroke-width: 0.8; stroke-linecap: square"/>
    </g>
    <g id="text_18">
     <!-- 6000 -->
     <g transform="translate(360.742948 191.108756)scale(0.1 -0.1)">
      <defs>
       <path id="DejaVuSans-36" d="M 2113 2584 
Q 1688 2584 1439 2293 
Q 1191 2003 1191 1497 
Q 1191 994 1439 701 
Q 1688 409 2113 409 
Q 2538 409 2786 701 
Q 3034 994 3034 1497 
Q 3034 2003 2786 2293 
Q 2538 2584 2113 2584 
z
M 3366 4563 
L 3366 3988 
Q 3128 4100 2886 4159 
Q 2644 4219 2406 4219 
Q 1781 4219 1451 3797 
Q 1122 3375 1075 2522 
Q 1259 2794 1537 2939 
Q 1816 3084 2150 3084 
Q 2853 3084 3261 2657 
Q 3669 2231 3669 1497 
Q 3669 778 3244 343 
Q 2819 -91 2113 -91 
Q 1303 -91 875 529 
Q 447 1150 447 2328 
Q 447 3434 972 4092 
Q 1497 4750 2381 4750 
Q 2619 4750 2861 4703 
Q 3103 4656 3366 4563 
z
" transform="scale(0.015625)"/>
      </defs>
      <use xlink:href="#DejaVuSans-36"/>
      <use xlink:href="#DejaVuSans-30" x="63.623047"/>
      <use xlink:href="#DejaVuSans-30" x="127.246094"/>
      <use xlink:href="#DejaVuSans-30" x="190.869141"/>
     </g>
    </g>
   </g>
   <g id="xtick_16">
    <g id="line2d_19">
     <path d="M 354.383093 153.538501 
L 356.14147 155.526516 
" style="fill: none; stroke: #000000; stroke-width: 0.8; stroke-linecap: square"/>
    </g>
    <g id="text_19">
     <!-- 8000 -->
     <g transform="translate(362.08708 166.189939)scale(0.1 -0.1)">
      <defs>
       <path id="DejaVuSans-38" d="M 2034 2216 
Q 1584 2216 1326 1975 
Q 1069 1734 1069 1313 
Q 1069 891 1326 650 
Q 1584 409 2034 409 
Q 2484 409 2743 651 
Q 3003 894 3003 1313 
Q 3003 1734 2745 1975 
Q 2488 2216 2034 2216 
z
M 1403 2484 
Q 997 2584 770 2862 
Q 544 3141 544 3541 
Q 544 4100 942 4425 
Q 1341 4750 2034 4750 
Q 2731 4750 3128 4425 
Q 3525 4100 3525 3541 
Q 3525 3141 3298 2862 
Q 3072 2584 2669 2484 
Q 3125 2378 3379 2068 
Q 3634 1759 3634 1313 
Q 3634 634 3220 271 
Q 2806 -91 2034 -91 
Q 1263 -91 848 271 
Q 434 634 434 1313 
Q 434 1759 690 2068 
Q 947 2378 1403 2484 
z
M 1172 3481 
Q 1172 3119 1398 2916 
Q 1625 2713 2034 2713 
Q 2441 2713 2670 2916 
Q 2900 3119 2900 3481 
Q 2900 3844 2670 4047 
Q 2441 4250 2034 4250 
Q 1625 4250 1398 4047 
Q 1172 3844 1172 3481 
z
" transform="scale(0.015625)"/>
      </defs>
      <use xlink:href="#DejaVuSans-38"/>
      <use xlink:href="#DejaVuSans-30" x="63.623047"/>
      <use xlink:href="#DejaVuSans-30" x="127.246094"/>
      <use xlink:href="#DejaVuSans-30" x="190.869141"/>
     </g>
    </g>
   </g>
  </g>
  <g id="axes_1">
   <g id="Line3DCollection_4">
    <path d="M 144.662285 99.968949 
L 165.395806 113.371292 
L 185.432539 114.639798 
L 205.182761 112.653358 
L 224.73635 109.263536 
L 244.127415 105.034027 
L 263.375357 100.204542 
L 282.494948 94.836468 
" clip-path="url(#p5c6481ac2e)" style="fill: none; stroke: #00bfbf"/>
    <path d="M 145.53198 101.448963 
L 166.289236 114.856694 
L 186.352873 116.141866 
L 206.129903 114.156904 
L 225.710035 110.755445 
L 245.127458 106.537088 
L 264.401346 101.706476 
L 283.546361 96.348552 
" clip-path="url(#p5c6481ac2e)" style="fill: none; stroke: #00bfbf"/>
    <path d="M 146.404493 102.933772 
L 167.185869 116.358802 
L 187.275876 117.636823 
L 207.07987 115.653354 
L 226.686766 112.252021 
L 246.130628 108.033047 
L 265.430493 103.213032 
L 284.601185 97.853524 
" clip-path="url(#p5c6481ac2e)" style="fill: none; stroke: #00bfbf"/>
    <path d="M 147.279397 104.411246 
L 168.085035 117.853759 
L 188.201815 119.136535 
L 208.032834 117.154527 
L 227.666557 113.753286 
L 247.13692 109.533662 
L 266.462934 104.712483 
L 285.659239 99.363104 
" clip-path="url(#p5c6481ac2e)" style="fill: none; stroke: #00bfbf"/>
    <path d="M 148.157153 105.893536 
L 168.986758 119.341552 
L 189.130466 120.629134 
L 208.988667 118.648603 
L 228.649423 115.259263 
L 248.146348 111.038954 
L 267.498572 106.216577 
L 286.720754 100.865571 
" clip-path="url(#p5c6481ac2e)" style="fill: none; stroke: #00bfbf"/>
    <path d="M 149.037775 107.380666 
L 169.891723 120.846133 
L 190.062089 122.126509 
L 209.947536 120.147423 
L 229.635332 116.758154 
L 249.15897 112.537153 
L 268.537422 107.725334 
L 287.785319 102.384422 
" clip-path="url(#p5c6481ac2e)" style="fill: none; stroke: #00bfbf"/>
    <path d="M 149.920849 108.860467 
L 170.799281 122.343571 
L 190.996699 123.628684 
L 210.909453 121.65101 
L 230.624354 118.261778 
L 250.174768 114.040049 
L 269.579635 109.226995 
L 288.853611 103.884413 
" clip-path="url(#p5c6481ac2e)" style="fill: none; stroke: #00bfbf"/>
    <path d="M 150.806823 110.345131 
L 171.709779 123.845861 
L 191.934308 125.135682 
L 211.874435 123.159386 
L 231.616465 119.758315 
L 251.193757 115.547666 
L 270.625101 110.733341 
L 289.924983 105.400832 
" clip-path="url(#p5c6481ac2e)" style="fill: none; stroke: #00bfbf"/>
    <path d="M 151.695713 111.83468 
L 172.623231 125.353026 
L 192.874933 126.647526 
L 212.84237 124.660686 
L 232.611761 121.27146 
L 252.21595 117.060025 
L 271.673833 112.244394 
L 290.999909 106.910156 
" clip-path="url(#p5c6481ac2e)" style="fill: none; stroke: #00bfbf"/>
    <path d="M 152.587533 113.329139 
L 173.539339 126.853058 
L 193.818371 128.152288 
L 213.813407 126.166797 
L 233.610186 122.77754 
L 253.241427 118.56531 
L 272.726 113.748359 
L 292.078177 108.424173 
" clip-path="url(#p5c6481ac2e)" style="fill: none; stroke: #00bfbf"/>
    <path d="M 153.482297 114.828532 
L 174.458748 128.370032 
L 194.764861 129.661918 
L 214.78756 127.677742 
L 234.611793 124.288419 
L 254.270149 120.07536 
L 273.781475 115.257053 
L 293.16005 109.931093 
" clip-path="url(#p5c6481ac2e)" style="fill: none; stroke: #00bfbf"/>
    <path d="M 154.37961 116.320627 
L 175.380849 129.879896 
L 195.714418 131.176441 
L 215.764847 129.193546 
L 235.616578 125.792231 
L 255.302205 121.578334 
L 274.840273 116.770497 
L 294.245308 111.442728 
" clip-path="url(#p5c6481ac2e)" style="fill: none; stroke: #00bfbf"/>
    <path d="M 155.279903 117.81768 
L 176.305668 131.382638 
L 196.666853 132.683893 
L 216.745171 130.702295 
L 236.624599 127.312767 
L 256.33747 123.097968 
L 275.902411 118.288714 
L 295.333967 112.9591 
" clip-path="url(#p5c6481ac2e)" style="fill: none; stroke: #00bfbf"/>
    <path d="M 156.183193 119.319714 
L 177.233829 132.902407 
L 197.622594 134.208259 
L 217.728668 132.215924 
L 237.635838 128.826258 
L 257.376109 124.610549 
L 276.968078 119.799863 
L 296.426042 114.48023 
" clip-path="url(#p5c6481ac2e)" style="fill: none; stroke: #00bfbf"/>
    <path d="M 157.089493 120.826755 
L 178.164746 134.415076 
L 198.581252 135.725578 
L 218.715351 133.734457 
L 238.650325 130.332693 
L 258.418154 126.116064 
L 278.037125 121.315807 
L 297.521819 115.994284 
" clip-path="url(#p5c6481ac2e)" style="fill: none; stroke: #00bfbf"/>
    <path d="M 157.99882 122.338827 
L 179.099027 135.944847 
L 199.543045 137.247861 
L 219.705237 135.25792 
L 239.668091 131.855933 
L 259.463451 127.63832 
L 279.109755 122.824682 
L 298.621056 117.513119 
" clip-path="url(#p5c6481ac2e)" style="fill: none; stroke: #00bfbf"/>
    <path d="M 158.910795 123.843635 
L 180.036102 137.467542 
L 200.507803 138.763094 
L 220.69825 136.774349 
L 240.689145 133.372139 
L 260.512194 129.153533 
L 280.18562 124.350274 
L 299.724049 119.024875 
" clip-path="url(#p5c6481ac2e)" style="fill: none; stroke: #00bfbf"/>
    <path d="M 159.825834 125.353498 
L 180.975999 138.98315 
L 201.47592 140.295365 
L 221.694592 138.307728 
L 241.71351 134.89326 
L 261.564315 130.673624 
L 281.26511 125.868819 
L 300.830261 120.553328 
" clip-path="url(#p5c6481ac2e)" style="fill: none; stroke: #00bfbf"/>
    <path d="M 160.743953 126.868443 
L 181.919302 140.515946 
L 202.44704 141.820611 
L 222.694103 139.834098 
L 242.7412 136.419321 
L 262.619827 132.198617 
L 282.348057 127.392227 
L 301.940275 122.074725 
" clip-path="url(#p5c6481ac2e)" style="fill: none; stroke: #00bfbf"/>
    <path d="M 161.665167 128.388494 
L 182.865466 142.041679 
L 203.421368 143.350895 
L 223.696811 141.353446 
L 243.772234 137.950345 
L 263.678749 133.728535 
L 283.434685 128.908588 
L 303.053826 123.600971 
" clip-path="url(#p5c6481ac2e)" style="fill: none; stroke: #00bfbf"/>
    <path d="M 162.589492 129.913679 
L 183.815059 143.584676 
L 204.398919 144.88624 
L 224.702892 142.88983 
L 244.80665 139.474358 
L 264.741215 135.251433 
L 284.524602 130.441782 
L 304.171234 125.12016 
" clip-path="url(#p5c6481ac2e)" style="fill: none; stroke: #00bfbf"/>
    <path d="M 163.51657 131.431633 
L 184.767553 145.120636 
L 205.379709 146.426673 
L 225.712213 144.419216 
L 245.844452 141.003359 
L 265.807133 136.779279 
L 285.618245 131.967952 
L 305.292226 126.644221 
" clip-path="url(#p5c6481ac2e)" style="fill: none; stroke: #00bfbf"/>
    <path d="M 164.446798 132.954745 
L 185.723238 146.661741 
L 206.363593 147.960106 
L 226.724929 145.965713 
L 246.885655 142.537372 
L 266.876521 138.312099 
L 286.715423 133.499056 
L 306.416818 128.173177 
" clip-path="url(#p5c6481ac2e)" style="fill: none; stroke: #00bfbf"/>
    <path d="M 165.380558 134.495459 
L 186.681872 148.195808 
L 207.350914 149.510777 
L 227.740928 147.505238 
L 247.930277 144.076421 
L 267.949395 139.849916 
L 287.816382 135.023136 
L 307.545028 129.707052 
" clip-path="url(#p5c6481ac2e)" style="fill: none; stroke: #00bfbf"/>
    <path d="M 166.317132 136.02898 
L 187.643991 149.747269 
L 208.341371 151.054474 
L 228.760293 149.049863 
L 248.978334 145.620532 
L 269.025913 141.380736 
L 288.920688 136.564168 
L 308.676873 131.245869 
" clip-path="url(#p5c6481ac2e)" style="fill: none; stroke: #00bfbf"/>
    <path d="M 167.256547 137.555295 
L 188.6091 151.291717 
L 209.335142 152.603336 
L 229.782992 150.587516 
L 250.029894 147.157669 
L 270.105962 142.916579 
L 290.028822 138.0982 
L 309.812704 132.777664 
" clip-path="url(#p5c6481ac2e)" style="fill: none; stroke: #00bfbf"/>
    <path d="M 168.199538 139.099305 
L 189.577718 152.853639 
L 210.332242 154.157387 
L 230.809145 152.142407 
L 251.084878 148.711965 
L 271.18956 144.457468 
L 291.140572 139.637238 
L 310.952217 134.314425 
" clip-path="url(#p5c6481ac2e)" style="fill: none; stroke: #00bfbf"/>
    <path d="M 169.145762 140.648607 
L 190.549369 154.408576 
L 211.332551 155.704478 
L 231.838676 153.690351 
L 252.143409 150.259314 
L 272.276725 146.003428 
L 292.255957 141.181307 
L 312.095431 135.856177 
" clip-path="url(#p5c6481ac2e)" style="fill: none; stroke: #00bfbf"/>
    <path d="M 170.094889 142.190743 
L 191.524317 155.96879 
L 212.336367 157.268975 
L 232.871651 155.243472 
L 253.20552 151.799701 
L 273.367474 147.554486 
L 293.374993 142.730432 
L 313.242363 137.402944 
" clip-path="url(#p5c6481ac2e)" style="fill: none; stroke: #00bfbf"/>
    <path d="M 171.047289 143.738197 
L 192.502347 157.52202 
L 213.343435 158.826539 
L 233.908086 156.801798 
L 254.271103 153.357337 
L 274.461992 149.098584 
L 294.497962 144.272581 
L 314.393388 138.942713 
" clip-path="url(#p5c6481ac2e)" style="fill: none; stroke: #00bfbf"/>
    <path d="M 172.00298 145.290998 
L 193.483946 159.092856 
L 214.35391 160.389373 
L 234.948001 158.365354 
L 255.340236 154.920162 
L 275.559968 150.659898 
L 295.624631 145.819811 
L 315.54818 140.487522 
" clip-path="url(#p5c6481ac2e)" style="fill: none; stroke: #00bfbf"/>
    <path d="M 172.961978 146.849173 
L 194.46867 160.656736 
L 215.367809 161.957503 
L 235.991411 159.934166 
L 256.413017 156.476066 
L 276.66176 152.214279 
L 296.755018 147.372146 
L 316.706758 142.037395 
" clip-path="url(#p5c6481ac2e)" style="fill: none; stroke: #00bfbf"/>
    <path d="M 173.924302 148.41275 
L 195.456987 162.238303 
L 216.385151 163.530957 
L 237.038322 161.496073 
L 257.489394 158.037185 
L 277.767219 153.773834 
L 297.889141 148.929614 
L 317.869141 143.592357 
" clip-path="url(#p5c6481ac2e)" style="fill: none; stroke: #00bfbf"/>
    <path d="M 174.889967 149.981757 
L 196.448473 163.812943 
L 217.405952 165.109761 
L 238.088775 163.063264 
L 258.569385 159.603547 
L 278.876363 155.338588 
L 299.02702 150.492238 
L 319.035346 145.152433 
" clip-path="url(#p5c6481ac2e)" style="fill: none; stroke: #00bfbf"/>
    <path d="M 175.858672 151.543654 
L 197.443368 165.392998 
L 218.43023 166.693944 
L 239.14279 164.64798 
L 259.653009 161.175176 
L 279.989407 156.896424 
L 300.168964 152.047926 
L 320.205781 146.70555 
" clip-path="url(#p5c6481ac2e)" style="fill: none; stroke: #00bfbf"/>
    <path d="M 176.831078 153.123592 
L 198.441691 166.978495 
L 219.457903 168.271251 
L 240.200375 166.225833 
L 260.740284 162.752101 
L 281.105984 158.471643 
L 301.314713 153.608797 
L 321.380089 148.263807 
" clip-path="url(#p5c6481ac2e)" style="fill: none; stroke: #00bfbf"/>
    <path d="M 177.806568 154.69645 
L 199.443459 168.569463 
L 220.4891 169.853966 
L 241.261556 167.80905 
L 261.831336 164.322147 
L 282.226508 160.03997 
L 302.464285 155.174877 
L 322.557891 149.839355 
" clip-path="url(#p5c6481ac2e)" style="fill: none; stroke: #00bfbf"/>
    <path d="M 178.785479 156.274824 
L 200.448494 170.153536 
L 221.523927 171.454422 
L 242.326364 169.385408 
L 262.925973 165.909729 
L 283.350805 161.613576 
L 303.617701 156.746192 
L 323.740404 151.395845 
" clip-path="url(#p5c6481ac2e)" style="fill: none; stroke: #00bfbf"/>
    <path d="M 179.768132 157.871369 
L 201.457209 171.755518 
L 222.562218 173.048047 
L 243.394797 170.979425 
L 264.024436 167.490461 
L 284.478892 163.192489 
L 304.774979 158.322769 
L 324.92645 152.969677 
" clip-path="url(#p5c6481ac2e)" style="fill: none; stroke: #00bfbf"/>
    <path d="M 180.753936 159.460878 
L 202.469238 173.350634 
L 223.604087 174.647163 
L 244.466905 172.566611 
L 265.126636 169.07657 
L 285.61079 164.776734 
L 305.936138 159.904634 
L 326.116447 154.548752 
" clip-path="url(#p5c6481ac2e)" style="fill: none; stroke: #00bfbf"/>
    <path d="M 181.742922 161.043337 
L 203.484974 174.963745 
L 224.649477 176.239451 
L 245.542666 174.171539 
L 266.232592 170.668084 
L 286.746517 166.366339 
L 307.101527 161.479618 
L 327.310841 156.120922 
" clip-path="url(#p5c6481ac2e)" style="fill: none; stroke: #00bfbf"/>
    <path d="M 182.7357 162.644071 
L 204.504069 176.570021 
L 225.698562 177.849622 
L 246.62215 175.769665 
L 267.342323 172.265031 
L 287.886329 167.949097 
L 308.27085 163.059919 
L 328.509239 157.698363 
" clip-path="url(#p5c6481ac2e)" style="fill: none; stroke: #00bfbf"/>
    <path d="M 183.731991 164.250468 
L 205.526728 178.181914 
L 226.75128 179.465369 
L 247.705353 177.373297 
L 268.455848 173.867438 
L 289.030021 169.537243 
L 309.443785 164.657783 
L 329.711661 159.281102 
" clip-path="url(#p5c6481ac2e)" style="fill: none; stroke: #00bfbf"/>
    <path d="M 184.731534 165.849862 
L 206.552969 179.799453 
L 227.807592 181.074335 
L 248.792295 178.982464 
L 269.573335 175.463042 
L 290.177365 171.143066 
L 310.621028 166.248809 
L 330.918128 160.869164 
" clip-path="url(#p5c6481ac2e)" style="fill: none; stroke: #00bfbf"/>
    <path d="M 185.734911 167.467664 
L 207.582812 181.422669 
L 228.867585 182.688909 
L 249.882994 180.597194 
L 270.694514 177.076441 
L 291.328872 172.742086 
L 311.802618 167.832985 
L 332.128661 162.462578 
" clip-path="url(#p5c6481ac2e)" style="fill: none; stroke: #00bfbf"/>
    <path d="M 186.741587 169.078495 
L 208.616274 183.05159 
L 229.931328 184.321535 
L 250.977471 182.217515 
L 271.819705 178.683067 
L 292.48432 174.346577 
L 312.987875 169.434821 
L 333.343737 164.049131 
" clip-path="url(#p5c6481ac2e)" style="fill: none; stroke: #00bfbf"/>
    <path d="M 187.751861 170.695083 
L 209.653224 184.673729 
L 230.998738 185.947428 
L 252.075805 183.831086 
L 272.948781 180.29524 
L 293.643994 175.944269 
L 314.177167 171.042108 
L 334.562469 165.653315 
" clip-path="url(#p5c6481ac2e)" style="fill: none; stroke: #00bfbf"/>
    <path d="M 188.765752 172.317458 
L 210.69399 186.31414 
L 232.069888 187.579017 
L 253.177901 185.462667 
L 274.081762 181.91299 
L 294.80739 177.559776 
L 315.370887 172.642591 
L 335.7858 167.250667 
" clip-path="url(#p5c6481ac2e)" style="fill: none; stroke: #00bfbf"/>
    <path d="M 189.78328 173.945653 
L 211.738291 187.947801 
L 233.144798 189.216334 
L 254.283906 187.087528 
L 275.218669 183.536345 
L 295.974787 179.180839 
L 316.568696 174.248556 
L 337.013293 168.853454 
" clip-path="url(#p5c6481ac2e)" style="fill: none; stroke: #00bfbf"/>
    <path d="M 190.804463 175.579698 
L 212.7863 189.587263 
L 234.223459 190.846939 
L 255.39378 188.718072 
L 276.359522 185.165334 
L 297.146492 180.795149 
L 317.770615 175.860031 
L 338.244969 170.461704 
" clip-path="url(#p5c6481ac2e)" style="fill: none; stroke: #00bfbf"/>
    <path d="M 191.487459 176.680856 
L 213.487131 190.691854 
L 234.944699 191.945526 
L 256.135772 189.820694 
L 277.122418 186.246218 
L 297.929784 181.878575 
L 318.573928 176.945638 
L 339.068421 171.536919 
" clip-path="url(#p5c6481ac2e)" style="fill: none; stroke: #00bfbf"/>
    <path d="M 144.662285 99.968949 
L 150.511459 109.857835 
L 178.13249 155.22196 
L 191.487459 176.680856 
L 191.487459 176.680856 
" clip-path="url(#p5c6481ac2e)" style="fill: none; stroke: #00bfbf"/>
    <path d="M 165.395806 113.371292 
L 184.767553 145.120636 
L 198.775162 167.504084 
L 213.487131 190.691854 
L 213.487131 190.691854 
" clip-path="url(#p5c6481ac2e)" style="fill: none; stroke: #00bfbf"/>
    <path d="M 185.432539 114.639798 
L 194.764861 129.661918 
L 206.363593 147.960106 
L 223.952149 175.177314 
L 234.944699 191.945526 
L 234.944699 191.945526 
" clip-path="url(#p5c6481ac2e)" style="fill: none; stroke: #00bfbf"/>
    <path d="M 205.182761 112.653358 
L 217.728668 132.215924 
L 230.46673 151.627572 
L 248.792295 178.982464 
L 256.135772 189.820694 
L 256.135772 189.820694 
" clip-path="url(#p5c6481ac2e)" style="fill: none; stroke: #00bfbf"/>
    <path d="M 224.73635 109.263536 
L 242.055703 135.401397 
L 254.627109 153.873663 
L 274.839205 182.99872 
L 277.122418 186.246218 
L 277.122418 186.246218 
" clip-path="url(#p5c6481ac2e)" style="fill: none; stroke: #00bfbf"/>
    <path d="M 244.127415 105.034027 
L 253.92688 119.571479 
L 264.741215 135.251433 
L 279.246964 155.857288 
L 297.929784 181.878575 
L 297.929784 181.878575 
" clip-path="url(#p5c6481ac2e)" style="fill: none; stroke: #00bfbf"/>
    <path d="M 263.375357 100.204542 
L 278.394229 121.822191 
L 288.920688 136.564168 
L 304.774979 158.322769 
L 318.573928 176.945638 
L 318.573928 176.945638 
" clip-path="url(#p5c6481ac2e)" style="fill: none; stroke: #00bfbf"/>
    <path d="M 282.494948 94.836468 
L 292.078177 108.424173 
L 301.569878 121.567055 
L 314.009295 138.428898 
L 330.918128 160.869164 
L 339.068421 171.536919 
L 339.068421 171.536919 
" clip-path="url(#p5c6481ac2e)" style="fill: none; stroke: #00bfbf"/>
   </g>
  </g>
 </g>
 <defs>
  <clipPath id="p5c6481ac2e">
   <rect x="103.104" y="41.472" width="266.112" height="266.112"/>
  </clipPath>
 </defs>
</svg>
