<?xml version="1.0" encoding="utf-8" standalone="no"?>
<!DOCTYPE svg PUBLIC "-//W3C//DTD SVG 1.1//EN"
  "http://www.w3.org/Graphics/SVG/1.1/DTD/svg11.dtd">
<svg xmlns:xlink="http://www.w3.org/1999/xlink" width="460.8pt" height="345.6pt" viewBox="0 0 460.8 345.6" xmlns="http://www.w3.org/2000/svg" version="1.1">
 <metadata>
  <rdf:RDF xmlns:dc="http://purl.org/dc/elements/1.1/" xmlns:cc="http://creativecommons.org/ns#" xmlns:rdf="http://www.w3.org/1999/02/22-rdf-syntax-ns#">
   <cc:Work>
    <dc:type rdf:resource="http://purl.org/dc/dcmitype/StillImage"/>
    <dc:date>2022-08-16T23:00:17.732793</dc:date>
    <dc:format>image/svg+xml</dc:format>
    <dc:creator>
     <cc:Agent>
      <dc:title>Matplotlib v3.5.2, https://matplotlib.org/</dc:title>
     </cc:Agent>
    </dc:creator>
   </cc:Work>
  </rdf:RDF>
 </metadata>
 <defs>
  <style type="text/css">*{stroke-linejoin: round; stroke-linecap: butt}</style>
 </defs>
 <g id="figure_1">
  <g id="patch_1">
   <path d="M 0 345.6 
L 460.8 345.6 
L 460.8 0 
L 0 0 
z
" style="fill: #ffffff"/>
  </g>
  <g id="patch_2">
   <path d="M 103.104 307.584 
L 369.216 307.584 
L 369.216 41.472 
L 103.104 41.472 
z
" style="fill: #ffffff"/>
  </g>
  <g id="pane3d_1">
   <g id="patch_3">
    <path d="M 121.025472 230.864509 
L 230.117775 166.639105 
L 229.708099 60.557879 
L 115.568517 119.109731 
" style="fill: #f2f2f2; opacity: 0.5; stroke: #f2f2f2; stroke-linejoin: miter"/>
   </g>
  </g>
  <g id="pane3d_2">
   <g id="patch_4">
    <path d="M 230.117775 166.639105 
L 357.020026 219.864878 
L 362.339969 109.054252 
L 229.708099 60.557879 
" style="fill: #e6e6e6; opacity: 0.5; stroke: #e6e6e6; stroke-linejoin: miter"/>
   </g>
  </g>
  <g id="pane3d_3">
   <g id="patch_5">
    <path d="M 121.025472 230.864509 
L 250.868543 292.99827 
L 357.020026 219.864878 
L 230.117775 166.639105 
" style="fill: #ececec; opacity: 0.5; stroke: #ececec; stroke-linejoin: miter"/>
   </g>
  </g>
  <g id="axis3d_1">
   <g id="line2d_1">
    <path d="M 121.025472 230.864509 
L 250.868543 292.99827 
" style="fill: none; stroke: #000000; stroke-width: 0.8; stroke-linecap: square"/>
   </g>
   <g id="text_1">
    <!-- Input Power (uW) -->
    <g transform="translate(117.8633 285.966332)rotate(-334.427502)scale(0.1 -0.1)">
     <defs>
      <path id="DejaVuSans-49" d="M 628 4666 
L 1259 4666 
L 1259 0 
L 628 0 
L 628 4666 
z
" transform="scale(0.015625)"/>
      <path id="DejaVuSans-6e" d="M 3513 2113 
L 3513 0 
L 2938 0 
L 2938 2094 
Q 2938 2591 2744 2837 
Q 2550 3084 2163 3084 
Q 1697 3084 1428 2787 
Q 1159 2491 1159 1978 
L 1159 0 
L 581 0 
L 581 3500 
L 1159 3500 
L 1159 2956 
Q 1366 3272 1645 3428 
Q 1925 3584 2291 3584 
Q 2894 3584 3203 3211 
Q 3513 2838 3513 2113 
z
" transform="scale(0.015625)"/>
      <path id="DejaVuSans-70" d="M 1159 525 
L 1159 -1331 
L 581 -1331 
L 581 3500 
L 1159 3500 
L 1159 2969 
Q 1341 3281 1617 3432 
Q 1894 3584 2278 3584 
Q 2916 3584 3314 3078 
Q 3713 2572 3713 1747 
Q 3713 922 3314 415 
Q 2916 -91 2278 -91 
Q 1894 -91 1617 61 
Q 1341 213 1159 525 
z
M 3116 1747 
Q 3116 2381 2855 2742 
Q 2594 3103 2138 3103 
Q 1681 3103 1420 2742 
Q 1159 2381 1159 1747 
Q 1159 1113 1420 752 
Q 1681 391 2138 391 
Q 2594 391 2855 752 
Q 3116 1113 3116 1747 
z
" transform="scale(0.015625)"/>
      <path id="DejaVuSans-75" d="M 544 1381 
L 544 3500 
L 1119 3500 
L 1119 1403 
Q 1119 906 1312 657 
Q 1506 409 1894 409 
Q 2359 409 2629 706 
Q 2900 1003 2900 1516 
L 2900 3500 
L 3475 3500 
L 3475 0 
L 2900 0 
L 2900 538 
Q 2691 219 2414 64 
Q 2138 -91 1772 -91 
Q 1169 -91 856 284 
Q 544 659 544 1381 
z
M 1991 3584 
L 1991 3584 
z
" transform="scale(0.015625)"/>
      <path id="DejaVuSans-74" d="M 1172 4494 
L 1172 3500 
L 2356 3500 
L 2356 3053 
L 1172 3053 
L 1172 1153 
Q 1172 725 1289 603 
Q 1406 481 1766 481 
L 2356 481 
L 2356 0 
L 1766 0 
Q 1100 0 847 248 
Q 594 497 594 1153 
L 594 3053 
L 172 3053 
L 172 3500 
L 594 3500 
L 594 4494 
L 1172 4494 
z
" transform="scale(0.015625)"/>
      <path id="DejaVuSans-20" transform="scale(0.015625)"/>
      <path id="DejaVuSans-50" d="M 1259 4147 
L 1259 2394 
L 2053 2394 
Q 2494 2394 2734 2622 
Q 2975 2850 2975 3272 
Q 2975 3691 2734 3919 
Q 2494 4147 2053 4147 
L 1259 4147 
z
M 628 4666 
L 2053 4666 
Q 2838 4666 3239 4311 
Q 3641 3956 3641 3272 
Q 3641 2581 3239 2228 
Q 2838 1875 2053 1875 
L 1259 1875 
L 1259 0 
L 628 0 
L 628 4666 
z
" transform="scale(0.015625)"/>
      <path id="DejaVuSans-6f" d="M 1959 3097 
Q 1497 3097 1228 2736 
Q 959 2375 959 1747 
Q 959 1119 1226 758 
Q 1494 397 1959 397 
Q 2419 397 2687 759 
Q 2956 1122 2956 1747 
Q 2956 2369 2687 2733 
Q 2419 3097 1959 3097 
z
M 1959 3584 
Q 2709 3584 3137 3096 
Q 3566 2609 3566 1747 
Q 3566 888 3137 398 
Q 2709 -91 1959 -91 
Q 1206 -91 779 398 
Q 353 888 353 1747 
Q 353 2609 779 3096 
Q 1206 3584 1959 3584 
z
" transform="scale(0.015625)"/>
      <path id="DejaVuSans-77" d="M 269 3500 
L 844 3500 
L 1563 769 
L 2278 3500 
L 2956 3500 
L 3675 769 
L 4391 3500 
L 4966 3500 
L 4050 0 
L 3372 0 
L 2619 2869 
L 1863 0 
L 1184 0 
L 269 3500 
z
" transform="scale(0.015625)"/>
      <path id="DejaVuSans-65" d="M 3597 1894 
L 3597 1613 
L 953 1613 
Q 991 1019 1311 708 
Q 1631 397 2203 397 
Q 2534 397 2845 478 
Q 3156 559 3463 722 
L 3463 178 
Q 3153 47 2828 -22 
Q 2503 -91 2169 -91 
Q 1331 -91 842 396 
Q 353 884 353 1716 
Q 353 2575 817 3079 
Q 1281 3584 2069 3584 
Q 2775 3584 3186 3129 
Q 3597 2675 3597 1894 
z
M 3022 2063 
Q 3016 2534 2758 2815 
Q 2500 3097 2075 3097 
Q 1594 3097 1305 2825 
Q 1016 2553 972 2059 
L 3022 2063 
z
" transform="scale(0.015625)"/>
      <path id="DejaVuSans-72" d="M 2631 2963 
Q 2534 3019 2420 3045 
Q 2306 3072 2169 3072 
Q 1681 3072 1420 2755 
Q 1159 2438 1159 1844 
L 1159 0 
L 581 0 
L 581 3500 
L 1159 3500 
L 1159 2956 
Q 1341 3275 1631 3429 
Q 1922 3584 2338 3584 
Q 2397 3584 2469 3576 
Q 2541 3569 2628 3553 
L 2631 2963 
z
" transform="scale(0.015625)"/>
      <path id="DejaVuSans-28" d="M 1984 4856 
Q 1566 4138 1362 3434 
Q 1159 2731 1159 2009 
Q 1159 1288 1364 580 
Q 1569 -128 1984 -844 
L 1484 -844 
Q 1016 -109 783 600 
Q 550 1309 550 2009 
Q 550 2706 781 3412 
Q 1013 4119 1484 4856 
L 1984 4856 
z
" transform="scale(0.015625)"/>
      <path id="DejaVuSans-57" d="M 213 4666 
L 850 4666 
L 1831 722 
L 2809 4666 
L 3519 4666 
L 4500 722 
L 5478 4666 
L 6119 4666 
L 4947 0 
L 4153 0 
L 3169 4050 
L 2175 0 
L 1381 0 
L 213 4666 
z
" transform="scale(0.015625)"/>
      <path id="DejaVuSans-29" d="M 513 4856 
L 1013 4856 
Q 1481 4119 1714 3412 
Q 1947 2706 1947 2009 
Q 1947 1309 1714 600 
Q 1481 -109 1013 -844 
L 513 -844 
Q 928 -128 1133 580 
Q 1338 1288 1338 2009 
Q 1338 2731 1133 3434 
Q 928 4138 513 4856 
z
" transform="scale(0.015625)"/>
     </defs>
     <use xlink:href="#DejaVuSans-49"/>
     <use xlink:href="#DejaVuSans-6e" x="29.492188"/>
     <use xlink:href="#DejaVuSans-70" x="92.871094"/>
     <use xlink:href="#DejaVuSans-75" x="156.347656"/>
     <use xlink:href="#DejaVuSans-74" x="219.726562"/>
     <use xlink:href="#DejaVuSans-20" x="258.935547"/>
     <use xlink:href="#DejaVuSans-50" x="290.722656"/>
     <use xlink:href="#DejaVuSans-6f" x="347.400391"/>
     <use xlink:href="#DejaVuSans-77" x="408.582031"/>
     <use xlink:href="#DejaVuSans-65" x="490.369141"/>
     <use xlink:href="#DejaVuSans-72" x="551.892578"/>
     <use xlink:href="#DejaVuSans-20" x="593.005859"/>
     <use xlink:href="#DejaVuSans-28" x="624.792969"/>
     <use xlink:href="#DejaVuSans-75" x="663.806641"/>
     <use xlink:href="#DejaVuSans-57" x="727.185547"/>
     <use xlink:href="#DejaVuSans-29" x="826.0625"/>
    </g>
   </g>
   <g id="Line3DCollection_1">
    <path d="M 128.781439 234.575969 
L 237.73394 169.833503 
L 237.647642 63.460944 
" style="fill: none; stroke: #b0b0b0; stroke-width: 0.8"/>
    <path d="M 146.815184 243.205651 
L 255.424941 177.253522 
L 256.099865 70.207934 
" style="fill: none; stroke: #b0b0b0; stroke-width: 0.8"/>
    <path d="M 165.200427 252.003535 
L 273.43534 184.807505 
L 274.899716 77.082033 
" style="fill: none; stroke: #b0b0b0; stroke-width: 0.8"/>
    <path d="M 183.947545 260.974587 
L 291.773866 192.499112 
L 294.057111 84.086867 
" style="fill: none; stroke: #b0b0b0; stroke-width: 0.8"/>
    <path d="M 203.067328 270.123971 
L 310.449569 200.332139 
L 313.582347 91.2262 
" style="fill: none; stroke: #b0b0b0; stroke-width: 0.8"/>
    <path d="M 222.571001 279.457057 
L 329.471834 208.310522 
L 333.486122 98.503945 
" style="fill: none; stroke: #b0b0b0; stroke-width: 0.8"/>
    <path d="M 242.470242 288.979434 
L 348.850398 216.438345 
L 353.779552 105.924166 
" style="fill: none; stroke: #b0b0b0; stroke-width: 0.8"/>
   </g>
   <g id="xtick_1">
    <g id="line2d_2">
     <path d="M 129.720512 234.017947 
L 126.89977 235.694107 
" style="fill: none; stroke: #000000; stroke-width: 0.8; stroke-linecap: square"/>
    </g>
    <g id="text_2">
     <!-- 5000 -->
     <g transform="translate(106.690614 256.895535)scale(0.1 -0.1)">
      <defs>
       <path id="DejaVuSans-35" d="M 691 4666 
L 3169 4666 
L 3169 4134 
L 1269 4134 
L 1269 2991 
Q 1406 3038 1543 3061 
Q 1681 3084 1819 3084 
Q 2600 3084 3056 2656 
Q 3513 2228 3513 1497 
Q 3513 744 3044 326 
Q 2575 -91 1722 -91 
Q 1428 -91 1123 -41 
Q 819 9 494 109 
L 494 744 
Q 775 591 1075 516 
Q 1375 441 1709 441 
Q 2250 441 2565 725 
Q 2881 1009 2881 1497 
Q 2881 1984 2565 2268 
Q 2250 2553 1709 2553 
Q 1456 2553 1204 2497 
Q 953 2441 691 2322 
L 691 4666 
z
" transform="scale(0.015625)"/>
       <path id="DejaVuSans-30" d="M 2034 4250 
Q 1547 4250 1301 3770 
Q 1056 3291 1056 2328 
Q 1056 1369 1301 889 
Q 1547 409 2034 409 
Q 2525 409 2770 889 
Q 3016 1369 3016 2328 
Q 3016 3291 2770 3770 
Q 2525 4250 2034 4250 
z
M 2034 4750 
Q 2819 4750 3233 4129 
Q 3647 3509 3647 2328 
Q 3647 1150 3233 529 
Q 2819 -91 2034 -91 
Q 1250 -91 836 529 
Q 422 1150 422 2328 
Q 422 3509 836 4129 
Q 1250 4750 2034 4750 
z
" transform="scale(0.015625)"/>
      </defs>
      <use xlink:href="#DejaVuSans-35"/>
      <use xlink:href="#DejaVuSans-30" x="63.623047"/>
      <use xlink:href="#DejaVuSans-30" x="127.246094"/>
      <use xlink:href="#DejaVuSans-30" x="190.869141"/>
     </g>
    </g>
   </g>
   <g id="xtick_2">
    <g id="line2d_3">
     <path d="M 147.751951 242.636809 
L 144.938101 244.34549 
" style="fill: none; stroke: #000000; stroke-width: 0.8; stroke-linecap: square"/>
    </g>
    <g id="text_3">
     <!-- 10000 -->
     <g transform="translate(121.503872 265.692307)scale(0.1 -0.1)">
      <defs>
       <path id="DejaVuSans-31" d="M 794 531 
L 1825 531 
L 1825 4091 
L 703 3866 
L 703 4441 
L 1819 4666 
L 2450 4666 
L 2450 531 
L 3481 531 
L 3481 0 
L 794 0 
L 794 531 
z
" transform="scale(0.015625)"/>
      </defs>
      <use xlink:href="#DejaVuSans-31"/>
      <use xlink:href="#DejaVuSans-30" x="63.623047"/>
      <use xlink:href="#DejaVuSans-30" x="127.246094"/>
      <use xlink:href="#DejaVuSans-30" x="190.869141"/>
      <use xlink:href="#DejaVuSans-30" x="254.492188"/>
     </g>
    </g>
   </g>
   <g id="xtick_3">
    <g id="line2d_4">
     <path d="M 166.13462 251.423556 
L 163.328468 253.165713 
" style="fill: none; stroke: #000000; stroke-width: 0.8; stroke-linecap: square"/>
    </g>
    <g id="text_4">
     <!-- 15000 -->
     <g transform="translate(139.850124 274.661031)scale(0.1 -0.1)">
      <use xlink:href="#DejaVuSans-31"/>
      <use xlink:href="#DejaVuSans-35" x="63.623047"/>
      <use xlink:href="#DejaVuSans-30" x="127.246094"/>
      <use xlink:href="#DejaVuSans-30" x="190.869141"/>
      <use xlink:href="#DejaVuSans-30" x="254.492188"/>
     </g>
    </g>
   </g>
   <g id="xtick_4">
    <g id="line2d_5">
     <path d="M 184.878881 260.38314 
L 182.081276 262.159768 
" style="fill: none; stroke: #000000; stroke-width: 0.8; stroke-linecap: square"/>
    </g>
    <g id="text_5">
     <!-- 20000 -->
     <g transform="translate(158.558532 283.806799)scale(0.1 -0.1)">
      <defs>
       <path id="DejaVuSans-32" d="M 1228 531 
L 3431 531 
L 3431 0 
L 469 0 
L 469 531 
Q 828 903 1448 1529 
Q 2069 2156 2228 2338 
Q 2531 2678 2651 2914 
Q 2772 3150 2772 3378 
Q 2772 3750 2511 3984 
Q 2250 4219 1831 4219 
Q 1534 4219 1204 4116 
Q 875 4013 500 3803 
L 500 4441 
Q 881 4594 1212 4672 
Q 1544 4750 1819 4750 
Q 2544 4750 2975 4387 
Q 3406 4025 3406 3419 
Q 3406 3131 3298 2873 
Q 3191 2616 2906 2266 
Q 2828 2175 2409 1742 
Q 1991 1309 1228 531 
z
" transform="scale(0.015625)"/>
      </defs>
      <use xlink:href="#DejaVuSans-32"/>
      <use xlink:href="#DejaVuSans-30" x="63.623047"/>
      <use xlink:href="#DejaVuSans-30" x="127.246094"/>
      <use xlink:href="#DejaVuSans-30" x="190.869141"/>
      <use xlink:href="#DejaVuSans-30" x="254.492188"/>
     </g>
    </g>
   </g>
   <g id="xtick_5">
    <g id="line2d_6">
     <path d="M 203.995508 269.520711 
L 201.207348 271.332844 
" style="fill: none; stroke: #000000; stroke-width: 0.8; stroke-linecap: square"/>
    </g>
    <g id="text_6">
     <!-- 25000 -->
     <g transform="translate(177.639929 293.134905)scale(0.1 -0.1)">
      <use xlink:href="#DejaVuSans-32"/>
      <use xlink:href="#DejaVuSans-35" x="63.623047"/>
      <use xlink:href="#DejaVuSans-30" x="127.246094"/>
      <use xlink:href="#DejaVuSans-30" x="190.869141"/>
      <use xlink:href="#DejaVuSans-30" x="254.492188"/>
     </g>
    </g>
   </g>
   <g id="xtick_6">
    <g id="line2d_7">
     <path d="M 223.49571 278.841628 
L 220.717939 280.690339 
" style="fill: none; stroke: #000000; stroke-width: 0.8; stroke-linecap: square"/>
    </g>
    <g id="text_7">
     <!-- 30000 -->
     <g transform="translate(197.105581 302.650858)scale(0.1 -0.1)">
      <defs>
       <path id="DejaVuSans-33" d="M 2597 2516 
Q 3050 2419 3304 2112 
Q 3559 1806 3559 1356 
Q 3559 666 3084 287 
Q 2609 -91 1734 -91 
Q 1441 -91 1130 -33 
Q 819 25 488 141 
L 488 750 
Q 750 597 1062 519 
Q 1375 441 1716 441 
Q 2309 441 2620 675 
Q 2931 909 2931 1356 
Q 2931 1769 2642 2001 
Q 2353 2234 1838 2234 
L 1294 2234 
L 1294 2753 
L 1863 2753 
Q 2328 2753 2575 2939 
Q 2822 3125 2822 3475 
Q 2822 3834 2567 4026 
Q 2313 4219 1838 4219 
Q 1578 4219 1281 4162 
Q 984 4106 628 3988 
L 628 4550 
Q 988 4650 1302 4700 
Q 1616 4750 1894 4750 
Q 2613 4750 3031 4423 
Q 3450 4097 3450 3541 
Q 3450 3153 3228 2886 
Q 3006 2619 2597 2516 
z
" transform="scale(0.015625)"/>
      </defs>
      <use xlink:href="#DejaVuSans-33"/>
      <use xlink:href="#DejaVuSans-30" x="63.623047"/>
      <use xlink:href="#DejaVuSans-30" x="127.246094"/>
      <use xlink:href="#DejaVuSans-30" x="190.869141"/>
      <use xlink:href="#DejaVuSans-30" x="254.492188"/>
     </g>
    </g>
   </g>
   <g id="xtick_7">
    <g id="line2d_8">
     <path d="M 243.391148 288.351464 
L 240.624764 290.237873 
" style="fill: none; stroke: #000000; stroke-width: 0.8; stroke-linecap: square"/>
    </g>
    <g id="text_8">
     <!-- 35000 -->
     <g transform="translate(216.967212 312.360389)scale(0.1 -0.1)">
      <use xlink:href="#DejaVuSans-33"/>
      <use xlink:href="#DejaVuSans-35" x="63.623047"/>
      <use xlink:href="#DejaVuSans-30" x="127.246094"/>
      <use xlink:href="#DejaVuSans-30" x="190.869141"/>
      <use xlink:href="#DejaVuSans-30" x="254.492188"/>
     </g>
    </g>
   </g>
  </g>
  <g id="axis3d_2">
   <g id="line2d_9">
    <path d="M 357.020026 219.864878 
L 250.868543 292.99827 
" style="fill: none; stroke: #000000; stroke-width: 0.8; stroke-linecap: square"/>
   </g>
   <g id="text_9">
    <!-- # of cores -->
    <g transform="translate(316.663463 309.97091)rotate(-34.565019)scale(0.1 -0.1)">
     <defs>
      <path id="DejaVuSans-23" d="M 3272 2816 
L 2363 2816 
L 2100 1772 
L 3016 1772 
L 3272 2816 
z
M 2803 4594 
L 2478 3297 
L 3391 3297 
L 3719 4594 
L 4219 4594 
L 3897 3297 
L 4872 3297 
L 4872 2816 
L 3775 2816 
L 3519 1772 
L 4513 1772 
L 4513 1294 
L 3397 1294 
L 3072 0 
L 2572 0 
L 2894 1294 
L 1978 1294 
L 1656 0 
L 1153 0 
L 1478 1294 
L 494 1294 
L 494 1772 
L 1594 1772 
L 1856 2816 
L 850 2816 
L 850 3297 
L 1978 3297 
L 2297 4594 
L 2803 4594 
z
" transform="scale(0.015625)"/>
      <path id="DejaVuSans-66" d="M 2375 4863 
L 2375 4384 
L 1825 4384 
Q 1516 4384 1395 4259 
Q 1275 4134 1275 3809 
L 1275 3500 
L 2222 3500 
L 2222 3053 
L 1275 3053 
L 1275 0 
L 697 0 
L 697 3053 
L 147 3053 
L 147 3500 
L 697 3500 
L 697 3744 
Q 697 4328 969 4595 
Q 1241 4863 1831 4863 
L 2375 4863 
z
" transform="scale(0.015625)"/>
      <path id="DejaVuSans-63" d="M 3122 3366 
L 3122 2828 
Q 2878 2963 2633 3030 
Q 2388 3097 2138 3097 
Q 1578 3097 1268 2742 
Q 959 2388 959 1747 
Q 959 1106 1268 751 
Q 1578 397 2138 397 
Q 2388 397 2633 464 
Q 2878 531 3122 666 
L 3122 134 
Q 2881 22 2623 -34 
Q 2366 -91 2075 -91 
Q 1284 -91 818 406 
Q 353 903 353 1747 
Q 353 2603 823 3093 
Q 1294 3584 2113 3584 
Q 2378 3584 2631 3529 
Q 2884 3475 3122 3366 
z
" transform="scale(0.015625)"/>
      <path id="DejaVuSans-73" d="M 2834 3397 
L 2834 2853 
Q 2591 2978 2328 3040 
Q 2066 3103 1784 3103 
Q 1356 3103 1142 2972 
Q 928 2841 928 2578 
Q 928 2378 1081 2264 
Q 1234 2150 1697 2047 
L 1894 2003 
Q 2506 1872 2764 1633 
Q 3022 1394 3022 966 
Q 3022 478 2636 193 
Q 2250 -91 1575 -91 
Q 1294 -91 989 -36 
Q 684 19 347 128 
L 347 722 
Q 666 556 975 473 
Q 1284 391 1588 391 
Q 1994 391 2212 530 
Q 2431 669 2431 922 
Q 2431 1156 2273 1281 
Q 2116 1406 1581 1522 
L 1381 1569 
Q 847 1681 609 1914 
Q 372 2147 372 2553 
Q 372 3047 722 3315 
Q 1072 3584 1716 3584 
Q 2034 3584 2315 3537 
Q 2597 3491 2834 3397 
z
" transform="scale(0.015625)"/>
     </defs>
     <use xlink:href="#DejaVuSans-23"/>
     <use xlink:href="#DejaVuSans-20" x="83.789062"/>
     <use xlink:href="#DejaVuSans-6f" x="115.576172"/>
     <use xlink:href="#DejaVuSans-66" x="176.757812"/>
     <use xlink:href="#DejaVuSans-20" x="211.962891"/>
     <use xlink:href="#DejaVuSans-63" x="243.75"/>
     <use xlink:href="#DejaVuSans-6f" x="298.730469"/>
     <use xlink:href="#DejaVuSans-72" x="359.912109"/>
     <use xlink:href="#DejaVuSans-65" x="398.775391"/>
     <use xlink:href="#DejaVuSans-73" x="460.298828"/>
    </g>
   </g>
   <g id="Line3DCollection_2">
    <path d="M 123.382101 115.101482 
L 128.470545 226.481405 
L 258.146881 287.983837 
" style="fill: none; stroke: #b0b0b0; stroke-width: 0.8"/>
    <path d="M 153.238776 99.785467 
L 156.950153 209.714738 
L 285.942605 268.833886 
" style="fill: none; stroke: #b0b0b0; stroke-width: 0.8"/>
    <path d="M 181.937725 85.063347 
L 184.371926 193.570846 
L 312.637071 250.442652 
" style="fill: none; stroke: #b0b0b0; stroke-width: 0.8"/>
    <path d="M 209.545004 70.901237 
L 210.793725 178.015662 
L 338.294453 232.765919 
" style="fill: none; stroke: #b0b0b0; stroke-width: 0.8"/>
   </g>
   <g id="xtick_8">
    <g id="line2d_10">
     <path d="M 257.038076 287.457957 
L 260.368189 289.037351 
" style="fill: none; stroke: #000000; stroke-width: 0.8; stroke-linecap: square"/>
    </g>
    <g id="text_10">
     <!-- 1 -->
     <g transform="translate(266.422248 310.279341)scale(0.1 -0.1)">
      <use xlink:href="#DejaVuSans-31"/>
     </g>
    </g>
   </g>
   <g id="xtick_9">
    <g id="line2d_11">
     <path d="M 284.841083 268.329042 
L 288.149251 269.845225 
" style="fill: none; stroke: #000000; stroke-width: 0.8; stroke-linecap: square"/>
    </g>
    <g id="text_11">
     <!-- 3 -->
     <g transform="translate(294.037288 290.79648)scale(0.1 -0.1)">
      <use xlink:href="#DejaVuSans-33"/>
     </g>
    </g>
   </g>
   <g id="xtick_10">
    <g id="line2d_12">
     <path d="M 311.543129 249.957606 
L 314.828459 251.414297 
" style="fill: none; stroke: #000000; stroke-width: 0.8; stroke-linecap: square"/>
    </g>
    <g id="text_12">
     <!-- 5 -->
     <g transform="translate(320.556248 272.086921)scale(0.1 -0.1)">
      <use xlink:href="#DejaVuSans-35"/>
     </g>
    </g>
   </g>
   <g id="xtick_11">
    <g id="line2d_13">
     <path d="M 337.20834 232.299529 
L 340.470092 233.700163 
" style="fill: none; stroke: #000000; stroke-width: 0.8; stroke-linecap: square"/>
    </g>
    <g id="text_13">
     <!-- 7 -->
     <g transform="translate(346.043117 254.105519)scale(0.1 -0.1)">
      <defs>
       <path id="DejaVuSans-37" d="M 525 4666 
L 3525 4666 
L 3525 4397 
L 1831 0 
L 1172 0 
L 2766 4134 
L 525 4134 
L 525 4666 
z
" transform="scale(0.015625)"/>
      </defs>
      <use xlink:href="#DejaVuSans-37"/>
     </g>
    </g>
   </g>
  </g>
  <g id="axis3d_3">
   <g id="line2d_14">
    <path d="M 357.020026 219.864878 
L 362.339969 109.054252 
" style="fill: none; stroke: #000000; stroke-width: 0.8; stroke-linecap: square"/>
   </g>
   <g id="text_14">
    <!-- Time (us) -->
    <g transform="translate(414.381014 186.967265)rotate(-87.251379)scale(0.1 -0.1)">
     <defs>
      <path id="DejaVuSans-54" d="M -19 4666 
L 3928 4666 
L 3928 4134 
L 2272 4134 
L 2272 0 
L 1638 0 
L 1638 4134 
L -19 4134 
L -19 4666 
z
" transform="scale(0.015625)"/>
      <path id="DejaVuSans-69" d="M 603 3500 
L 1178 3500 
L 1178 0 
L 603 0 
L 603 3500 
z
M 603 4863 
L 1178 4863 
L 1178 4134 
L 603 4134 
L 603 4863 
z
" transform="scale(0.015625)"/>
      <path id="DejaVuSans-6d" d="M 3328 2828 
Q 3544 3216 3844 3400 
Q 4144 3584 4550 3584 
Q 5097 3584 5394 3201 
Q 5691 2819 5691 2113 
L 5691 0 
L 5113 0 
L 5113 2094 
Q 5113 2597 4934 2840 
Q 4756 3084 4391 3084 
Q 3944 3084 3684 2787 
Q 3425 2491 3425 1978 
L 3425 0 
L 2847 0 
L 2847 2094 
Q 2847 2600 2669 2842 
Q 2491 3084 2119 3084 
Q 1678 3084 1418 2786 
Q 1159 2488 1159 1978 
L 1159 0 
L 581 0 
L 581 3500 
L 1159 3500 
L 1159 2956 
Q 1356 3278 1631 3431 
Q 1906 3584 2284 3584 
Q 2666 3584 2933 3390 
Q 3200 3197 3328 2828 
z
" transform="scale(0.015625)"/>
     </defs>
     <use xlink:href="#DejaVuSans-54"/>
     <use xlink:href="#DejaVuSans-69" x="57.958984"/>
     <use xlink:href="#DejaVuSans-6d" x="85.742188"/>
     <use xlink:href="#DejaVuSans-65" x="183.154297"/>
     <use xlink:href="#DejaVuSans-20" x="244.677734"/>
     <use xlink:href="#DejaVuSans-28" x="276.464844"/>
     <use xlink:href="#DejaVuSans-75" x="315.478516"/>
     <use xlink:href="#DejaVuSans-73" x="378.857422"/>
     <use xlink:href="#DejaVuSans-29" x="430.957031"/>
    </g>
   </g>
   <g id="Line3DCollection_3">
    <path d="M 357.121895 217.743004 
L 230.109909 164.602322 
L 120.921036 228.725746 
" style="fill: none; stroke: #b0b0b0; stroke-width: 0.8"/>
    <path d="M 358.108926 197.183858 
L 230.033738 144.878722 
L 119.909032 208.000562 
" style="fill: none; stroke: #b0b0b0; stroke-width: 0.8"/>
    <path d="M 359.112699 176.27598 
L 229.956355 124.84115 
L 118.879642 186.919352 
" style="fill: none; stroke: #b0b0b0; stroke-width: 0.8"/>
    <path d="M 360.133644 155.010422 
L 229.87773 104.48205 
L 117.832416 165.472864 
" style="fill: none; stroke: #b0b0b0; stroke-width: 0.8"/>
    <path d="M 361.172206 133.377924 
L 229.797834 83.79362 
L 116.766886 143.65152 
" style="fill: none; stroke: #b0b0b0; stroke-width: 0.8"/>
    <path d="M 362.228844 111.368908 
L 229.716634 62.767804 
L 115.682568 121.445406 
" style="fill: none; stroke: #b0b0b0; stroke-width: 0.8"/>
   </g>
   <g id="xtick_12">
    <g id="line2d_15">
     <path d="M 356.04084 217.2907 
L 359.287355 218.649013 
" style="fill: none; stroke: #000000; stroke-width: 0.8; stroke-linecap: square"/>
    </g>
    <g id="text_15">
     <!-- 0 -->
     <g transform="translate(373.276691 224.442364)scale(0.1 -0.1)">
      <use xlink:href="#DejaVuSans-30"/>
     </g>
    </g>
   </g>
   <g id="xtick_13">
    <g id="line2d_16">
     <path d="M 357.018271 196.738441 
L 360.293644 198.076084 
" style="fill: none; stroke: #000000; stroke-width: 0.8; stroke-linecap: square"/>
    </g>
    <g id="text_16">
     <!-- 5000 -->
     <g transform="translate(364.881397 203.896912)scale(0.1 -0.1)">
      <use xlink:href="#DejaVuSans-35"/>
      <use xlink:href="#DejaVuSans-30" x="63.623047"/>
      <use xlink:href="#DejaVuSans-30" x="127.246094"/>
      <use xlink:href="#DejaVuSans-30" x="190.869141"/>
     </g>
    </g>
   </g>
   <g id="xtick_14">
    <g id="line2d_17">
     <path d="M 358.012273 175.83775 
L 361.317019 177.153822 
" style="fill: none; stroke: #000000; stroke-width: 0.8; stroke-linecap: square"/>
    </g>
    <g id="text_17">
     <!-- 10000 -->
     <g transform="translate(362.868064 183.003323)scale(0.1 -0.1)">
      <use xlink:href="#DejaVuSans-31"/>
      <use xlink:href="#DejaVuSans-30" x="63.623047"/>
      <use xlink:href="#DejaVuSans-30" x="127.246094"/>
      <use xlink:href="#DejaVuSans-30" x="190.869141"/>
      <use xlink:href="#DejaVuSans-30" x="254.492188"/>
     </g>
    </g>
   </g>
   <g id="xtick_15">
    <g id="line2d_18">
     <path d="M 359.02327 154.57969 
L 362.357921 155.873254 
" style="fill: none; stroke: #000000; stroke-width: 0.8; stroke-linecap: square"/>
    </g>
    <g id="text_18">
     <!-- 15000 -->
     <g transform="translate(364.055939 161.752673)scale(0.1 -0.1)">
      <use xlink:href="#DejaVuSans-31"/>
      <use xlink:href="#DejaVuSans-35" x="63.623047"/>
      <use xlink:href="#DejaVuSans-30" x="127.246094"/>
      <use xlink:href="#DejaVuSans-30" x="190.869141"/>
      <use xlink:href="#DejaVuSans-30" x="254.492188"/>
     </g>
    </g>
   </g>
   <g id="xtick_16">
    <g id="line2d_19">
     <path d="M 360.051703 132.955016 
L 363.416803 134.225097 
" style="fill: none; stroke: #000000; stroke-width: 0.8; stroke-linecap: square"/>
    </g>
    <g id="text_19">
     <!-- 20000 -->
     <g transform="translate(365.26429 140.13573)scale(0.1 -0.1)">
      <use xlink:href="#DejaVuSans-32"/>
      <use xlink:href="#DejaVuSans-30" x="63.623047"/>
      <use xlink:href="#DejaVuSans-30" x="127.246094"/>
      <use xlink:href="#DejaVuSans-30" x="190.869141"/>
      <use xlink:href="#DejaVuSans-30" x="254.492188"/>
     </g>
    </g>
   </g>
   <g id="xtick_17">
    <g id="line2d_20">
     <path d="M 361.098027 110.954161 
L 364.494135 112.199742 
" style="fill: none; stroke: #000000; stroke-width: 0.8; stroke-linecap: square"/>
    </g>
    <g id="text_20">
     <!-- 25000 -->
     <g transform="translate(366.49365 118.142942)scale(0.1 -0.1)">
      <use xlink:href="#DejaVuSans-32"/>
      <use xlink:href="#DejaVuSans-35" x="63.623047"/>
      <use xlink:href="#DejaVuSans-30" x="127.246094"/>
      <use xlink:href="#DejaVuSans-30" x="190.869141"/>
      <use xlink:href="#DejaVuSans-30" x="254.492188"/>
     </g>
    </g>
   </g>
  </g>
  <g id="axes_1">
   <g id="Line3DCollection_4">
    <path d="M 132.554355 144.067344 
L 147.58676 139.708369 
L 162.141094 130.854941 
L 176.386715 120.681633 
L 190.368321 109.818691 
L 204.108494 98.409047 
L 217.624535 86.451822 
L 230.932673 73.872895 
" clip-path="url(#p07cd08d72e)" style="fill: none; stroke: #00bfbf"/>
    <path d="M 135.023939 151.114623 
L 150.020738 146.984655 
L 164.542755 138.410709 
L 178.755529 128.554899 
L 192.702793 118.053449 
L 206.406566 107.061422 
L 219.883413 95.582183 
L 233.148878 83.559087 
" clip-path="url(#p07cd08d72e)" style="fill: none; stroke: #00bfbf"/>
    <path d="M 137.439472 156.970833 
L 152.405766 153.023345 
L 166.900367 144.665395 
L 181.085652 135.062463 
L 195.004237 124.848642 
L 208.677581 114.182655 
L 222.121829 103.08051 
L 235.351908 91.494212 
" clip-path="url(#p07cd08d72e)" style="fill: none; stroke: #00bfbf"/>
    <path d="M 139.817006 161.960509 
L 154.75627 158.155428 
L 169.227267 149.974904 
L 183.388819 140.572626 
L 197.282796 130.589579 
L 210.930151 120.188179 
L 224.346616 109.392715 
L 237.546606 98.159476 
" clip-path="url(#p07cd08d72e)" style="fill: none; stroke: #00bfbf"/>
    <path d="M 142.167024 166.29418 
L 157.082083 162.607184 
L 171.532148 154.569041 
L 185.672895 145.331863 
L 199.545365 135.539525 
L 213.170021 125.353982 
L 226.562315 114.811976 
L 239.736197 103.86978 
" clip-path="url(#p07cd08d72e)" style="fill: none; stroke: #00bfbf"/>
    <path d="M 144.497019 170.123122 
L 159.390086 166.537317 
L 173.821255 158.614471 
L 187.943423 149.514941 
L 201.796672 139.877241 
L 215.401226 129.8756 
L 228.772071 119.538139 
L 241.922927 108.842043 
" clip-path="url(#p07cd08d72e)" style="fill: none; stroke: #00bfbf"/>
    <path d="M 146.812288 173.553632 
L 161.684813 170.046977 
L 176.09891 162.22475 
L 190.204304 153.243591 
L 204.040203 143.736912 
L 217.6266 133.887065 
L 230.978199 123.726182 
L 244.108412 113.235521 
" clip-path="url(#p07cd08d72e)" style="fill: none; stroke: #00bfbf"/>
    <path d="M 149.116936 176.669405 
L 163.970289 173.232032 
L 178.368495 165.491016 
L 192.458361 156.604417 
L 206.278409 147.209166 
L 219.848245 137.487289 
L 233.182365 127.483288 
L 246.293839 117.165768 
" clip-path="url(#p07cd08d72e)" style="fill: none; stroke: #00bfbf"/>
    <path d="M 151.413832 179.527583 
L 166.248924 176.144847 
L 180.632458 168.478169 
L 194.707878 159.670566 
L 208.513263 150.371149 
L 222.067829 140.761633 
L 235.385811 130.882182 
L 248.480099 120.722131 
" clip-path="url(#p07cd08d72e)" style="fill: none; stroke: #00bfbf"/>
    <path d="M 153.705039 182.167655 
L 168.522937 178.837418 
L 182.892526 171.229424 
L 196.954515 162.493555 
L 210.746225 153.278426 
L 224.286522 143.761346 
L 237.589533 133.994898 
L 250.667903 123.964106 
" clip-path="url(#p07cd08d72e)" style="fill: none; stroke: #00bfbf"/>
    <path d="M 155.99262 184.63322 
L 170.793882 181.344374 
L 185.150275 173.787733 
L 199.199548 165.111921 
L 212.97838 155.969409 
L 226.505316 146.537292 
L 239.794282 136.868015 
L 252.857769 126.950668 
" clip-path="url(#p07cd08d72e)" style="fill: none; stroke: #00bfbf"/>
    <path d="M 158.277915 186.950431 
L 173.063194 183.700183 
L 187.406859 176.183116 
L 201.444115 167.564 
L 215.210641 158.478092 
L 228.724937 149.119183 
L 242.00066 139.535352 
L 255.050137 129.719728 
" clip-path="url(#p07cd08d72e)" style="fill: none; stroke: #00bfbf"/>
    <path d="M 160.56203 189.141029 
L 175.331624 185.91783 
L 189.66324 178.441235 
L 203.688916 169.866892 
L 217.443764 160.834115 
L 230.946008 151.536563 
L 244.209156 142.030525 
L 257.245352 132.304831 
" clip-path="url(#p07cd08d72e)" style="fill: none; stroke: #00bfbf"/>
    <path d="M 162.845859 191.222375 
L 177.600312 188.027335 
L 191.920209 180.583426 
L 205.934706 172.046052 
L 219.678333 163.058626 
L 233.169052 153.81885 
L 246.420166 144.378706 
L 259.443708 134.73109 
" clip-path="url(#p07cd08d72e)" style="fill: none; stroke: #00bfbf"/>
    <path d="M 165.130237 193.21179 
L 179.86977 190.037297 
L 194.178326 182.622487 
L 208.182042 174.118437 
L 221.914863 165.172701 
L 235.394467 155.982867 
L 248.634028 146.596669 
L 261.645451 137.019378 
" clip-path="url(#p07cd08d72e)" style="fill: none; stroke: #00bfbf"/>
    <path d="M 167.415681 195.117927 
L 182.140682 191.964836 
L 196.438105 184.571182 
L 210.431375 176.096744 
L 224.153739 167.188984 
L 237.622586 158.037041 
L 250.851008 148.705274 
L 263.850757 139.190487 
" clip-path="url(#p07cd08d72e)" style="fill: none; stroke: #00bfbf"/>
    <path d="M 169.702803 196.953745 
L 184.413479 193.818504 
L 198.700088 186.446498 
L 212.68311 177.993648 
L 226.395283 169.115894 
L 239.853716 160.006441 
L 253.07132 150.721182 
L 266.059775 141.261023 
" clip-path="url(#p07cd08d72e)" style="fill: none; stroke: #00bfbf"/>
    <path d="M 171.99217 198.732195 
L 186.688562 195.606842 
L 200.964555 188.252674 
L 214.937609 179.821802 
L 228.639825 170.970216 
L 242.088097 161.891093 
L 255.295197 152.648583 
L 268.27269 143.239302 
" clip-path="url(#p07cd08d72e)" style="fill: none; stroke: #00bfbf"/>
    <path d="M 174.283954 200.453256 
L 188.966303 197.338381 
L 203.231837 189.998185 
L 217.195112 181.585417 
L 230.887605 172.760334 
L 244.325933 163.711853 
L 257.522802 154.499939 
L 270.489659 145.133612 
" clip-path="url(#p07cd08d72e)" style="fill: none; stroke: #00bfbf"/>
    <path d="M 176.578555 202.125546 
L 191.247042 199.021652 
L 205.502234 191.6915 
L 219.455915 183.29713 
L 233.138813 174.486238 
L 246.567422 165.464548 
L 259.754255 156.287697 
L 272.710703 146.960475 
" clip-path="url(#p07cd08d72e)" style="fill: none; stroke: #00bfbf"/>
    <path d="M 178.876232 203.753362 
L 193.531012 200.660905 
L 207.775961 193.336842 
L 221.720176 184.956922 
L 235.393669 176.164684 
L 248.812705 167.165844 
L 261.989704 158.016 
L 274.93596 148.72402 
" clip-path="url(#p07cd08d72e)" style="fill: none; stroke: #00bfbf"/>
    <path d="M 181.177334 205.345325 
L 195.818352 202.256115 
L 210.05327 194.942676 
L 223.988108 186.573205 
L 237.652319 177.795651 
L 251.061936 168.815725 
L 264.229246 159.69313 
L 277.165492 150.432494 
" clip-path="url(#p07cd08d72e)" style="fill: none; stroke: #00bfbf"/>
    <path d="M 183.48208 206.905734 
L 198.10942 203.820088 
L 212.334337 196.513225 
L 226.259873 188.150175 
L 239.914912 179.383311 
L 253.31525 170.418341 
L 266.473034 161.319071 
L 279.399399 152.090014 
" clip-path="url(#p07cd08d72e)" style="fill: none; stroke: #00bfbf"/>
    <path d="M 185.790482 208.430233 
L 200.404255 205.348518 
L 214.619234 198.044214 
L 228.535597 189.687806 
L 242.181574 180.93603 
L 255.572715 171.986182 
L 268.721081 162.90625 
L 281.637764 153.700688 
" clip-path="url(#p07cd08d72e)" style="fill: none; stroke: #00bfbf"/>
    <path d="M 188.102936 209.931782 
L 202.703105 206.849941 
L 216.908209 199.548362 
L 230.815453 191.198736 
L 244.452422 182.453785 
L 257.834473 173.515055 
L 270.973561 164.450493 
L 283.880587 155.272754 
" clip-path="url(#p07cd08d72e)" style="fill: none; stroke: #00bfbf"/>
    <path d="M 190.41944 211.406026 
L 205.006067 208.324332 
L 219.201358 201.025646 
L 233.099525 192.678719 
L 246.727558 183.940746 
L 260.100582 175.013282 
L 273.230444 165.96423 
L 286.12799 156.806192 
" clip-path="url(#p07cd08d72e)" style="fill: none; stroke: #00bfbf"/>
    <path d="M 192.740259 212.861606 
L 207.313349 209.780237 
L 221.498806 202.480296 
L 235.387924 194.131954 
L 249.007071 185.40109 
L 262.371107 176.485015 
L 275.49183 167.447441 
L 288.380016 158.305107 
" clip-path="url(#p07cd08d72e)" style="fill: none; stroke: #00bfbf"/>
    <path d="M 195.065389 214.294166 
L 209.624921 211.209061 
L 223.800612 203.908033 
L 237.680754 195.566871 
L 251.291056 186.834792 
L 264.646182 177.926055 
L 277.757823 168.9001 
L 290.636693 159.77361 
" clip-path="url(#p07cd08d72e)" style="fill: none; stroke: #00bfbf"/>
    <path d="M 197.394992 215.708019 
L 211.941027 212.623646 
L 226.106918 205.317345 
L 239.978088 196.974995 
L 253.579584 188.24603 
L 266.925867 179.340553 
L 280.028458 170.326338 
L 292.898036 161.215809 
" clip-path="url(#p07cd08d72e)" style="fill: none; stroke: #00bfbf"/>
    <path d="M 199.729216 217.107484 
L 214.26164 214.015392 
L 228.417819 206.712473 
L 242.280012 198.364759 
L 255.872709 189.63899 
L 269.210157 180.736846 
L 282.303758 171.730291 
L 295.164228 162.627548 
" clip-path="url(#p07cd08d72e)" style="fill: none; stroke: #00bfbf"/>
    <path d="M 202.068058 218.488203 
L 216.58697 215.397156 
L 230.733346 208.084877 
L 244.5866 199.736144 
L 258.170505 191.013651 
L 271.499121 182.114916 
L 284.583804 173.111935 
L 297.435086 164.02121 
" clip-path="url(#p07cd08d72e)" style="fill: none; stroke: #00bfbf"/>
    <path d="M 204.411722 219.858842 
L 218.916995 216.760334 
L 233.053608 209.443059 
L 246.897914 201.093366 
L 260.473079 192.365785 
L 273.79289 183.470561 
L 286.868599 174.475412 
L 299.710778 165.39264 
" clip-path="url(#p07cd08d72e)" style="fill: none; stroke: #00bfbf"/>
    <path d="M 206.760201 221.215044 
L 221.251824 218.109203 
L 235.378676 210.791269 
L 249.214032 202.432171 
L 262.780399 193.708001 
L 276.091425 184.812129 
L 289.158297 175.816539 
L 301.991283 166.745957 
" clip-path="url(#p07cd08d72e)" style="fill: none; stroke: #00bfbf"/>
    <path d="M 209.113617 222.561141 
L 223.591579 219.452348 
L 237.708595 212.12096 
L 251.534988 203.761017 
L 265.092601 195.031862 
L 278.394851 186.135416 
L 291.452809 177.143622 
L 304.276779 168.077 
" clip-path="url(#p07cd08d72e)" style="fill: none; stroke: #00bfbf"/>
    <path d="M 211.471972 223.892769 
L 225.936227 220.776853 
L 240.043439 213.44492 
L 253.860858 205.075651 
L 267.409712 196.341562 
L 280.703173 187.444593 
L 293.752195 178.456645 
L 306.567126 169.394033 
" clip-path="url(#p07cd08d72e)" style="fill: none; stroke: #00bfbf"/>
    <path d="M 213.835427 225.218618 
L 228.285906 222.095612 
L 242.383259 214.754599 
L 256.191677 206.380301 
L 269.731743 197.641301 
L 283.016379 188.743835 
L 296.056515 179.755594 
L 308.862384 170.697042 
" clip-path="url(#p07cd08d72e)" style="fill: none; stroke: #00bfbf"/>
    <path d="M 216.204023 226.538684 
L 230.640643 223.404312 
L 244.728109 216.054253 
L 258.527496 207.674956 
L 272.058746 198.93107 
L 285.334597 190.028939 
L 298.365831 181.040453 
L 311.162733 171.981863 
" clip-path="url(#p07cd08d72e)" style="fill: none; stroke: #00bfbf"/>
    <path d="M 218.577728 227.844241 
L 233.000502 224.70725 
L 247.078032 217.348149 
L 260.868369 208.959604 
L 274.390831 200.206634 
L 287.657889 191.299885 
L 300.680205 182.311205 
L 313.468 173.256775 
" clip-path="url(#p07cd08d72e)" style="fill: none; stroke: #00bfbf"/>
    <path d="M 220.956711 229.148357 
L 235.365519 226.000109 
L 249.4331 218.627722 
L 263.214348 210.234233 
L 276.727935 201.476424 
L 289.986148 192.565056 
L 302.999592 183.572009 
L 315.778233 174.521767 
" clip-path="url(#p07cd08d72e)" style="fill: none; stroke: #00bfbf"/>
    <path d="M 223.340942 230.442304 
L 237.735751 227.287192 
L 251.793319 219.905798 
L 265.565485 211.49883 
L 279.070167 202.736209 
L 292.319502 193.820245 
L 305.323932 184.827029 
L 318.093613 175.772675 
" clip-path="url(#p07cd08d72e)" style="fill: none; stroke: #00bfbf"/>
    <path d="M 225.730505 231.730435 
L 240.111242 228.564174 
L 254.158767 221.173811 
L 267.921737 212.761896 
L 281.417578 203.985975 
L 294.658003 195.065439 
L 307.653493 186.067903 
L 320.414067 177.013636 
" clip-path="url(#p07cd08d72e)" style="fill: none; stroke: #00bfbf"/>
    <path d="M 228.125463 233.017116 
L 242.492038 229.839685 
L 256.529469 222.436034 
L 270.283291 214.010657 
L 283.770145 205.229942 
L 297.001606 196.304834 
L 309.988102 187.302975 
L 322.739646 178.24464 
" clip-path="url(#p07cd08d72e)" style="fill: none; stroke: #00bfbf"/>
    <path d="M 230.525815 234.293602 
L 244.878178 231.109402 
L 258.905435 223.696751 
L 272.650043 215.257874 
L 286.12791 206.468105 
L 299.350452 197.534213 
L 312.32792 188.528055 
L 325.070258 179.469836 
" clip-path="url(#p07cd08d72e)" style="fill: none; stroke: #00bfbf"/>
    <path d="M 232.931643 235.56863 
L 247.269705 232.373319 
L 261.286771 224.947379 
L 275.022083 216.499286 
L 288.490914 207.700458 
L 301.704489 198.757776 
L 314.672999 189.743131 
L 327.406088 180.685054 
" clip-path="url(#p07cd08d72e)" style="fill: none; stroke: #00bfbf"/>
    <path d="M 235.34297 236.837825 
L 249.666664 233.631431 
L 263.673488 226.1922 
L 277.399454 217.734887 
L 290.859198 208.926993 
L 304.063756 199.975517 
L 317.02313 190.956568 
L 329.747188 181.890282 
" clip-path="url(#p07cd08d72e)" style="fill: none; stroke: #00bfbf"/>
    <path d="M 237.759846 238.105561 
L 252.069099 234.883732 
L 266.065586 227.435505 
L 279.782198 218.964671 
L 293.232804 210.147706 
L 306.428295 201.187429 
L 319.378611 192.159984 
L 332.093299 183.093843 
" clip-path="url(#p07cd08d72e)" style="fill: none; stroke: #00bfbf"/>
    <path d="M 240.182304 239.367455 
L 254.477001 236.138882 
L 268.463145 228.672994 
L 282.170283 220.192902 
L 295.611775 211.362589 
L 308.798148 202.393506 
L 321.739216 193.361753 
L 334.444768 184.287398 
" clip-path="url(#p07cd08d72e)" style="fill: none; stroke: #00bfbf"/>
    <path d="M 242.610384 240.627889 
L 256.890481 237.383882 
L 270.866154 229.908966 
L 284.563819 221.415308 
L 297.996151 212.571637 
L 311.173356 203.593742 
L 324.105261 194.553484 
L 336.801483 185.475105 
" clip-path="url(#p07cd08d72e)" style="fill: none; stroke: #00bfbf"/>
    <path d="M 245.044118 241.886863 
L 259.309493 238.631735 
L 273.274703 231.139114 
L 286.962848 222.631882 
L 300.385871 213.779092 
L 313.553834 204.792353 
L 326.476504 195.743561 
L 339.163485 186.656959 
" clip-path="url(#p07cd08d72e)" style="fill: none; stroke: #00bfbf"/>
    <path d="M 247.483555 243.139987 
L 261.734133 239.873766 
L 275.688774 232.367742 
L 289.367241 223.851176 
L 302.780966 214.984955 
L 315.939743 205.985115 
L 328.853125 196.927782 
L 341.530815 187.832952 
" clip-path="url(#p07cd08d72e)" style="fill: none; stroke: #00bfbf"/>
    <path d="M 249.52079 244.1843 
L 263.758984 240.90591 
L 277.704744 233.390138 
L 291.375223 224.859348 
L 304.781144 215.983367 
L 317.932197 206.974022 
L 330.837726 197.911673 
L 343.507537 188.812064 
" clip-path="url(#p07cd08d72e)" style="fill: none; stroke: #00bfbf"/>
    <path d="M 132.554355 144.067344 
L 134.616709 150.035488 
L 136.639261 155.130453 
L 138.632281 159.559933 
L 140.994951 164.199301 
L 143.3341 168.262901 
L 145.656262 171.883746 
L 148.349669 175.660912 
L 151.031343 179.064033 
L 154.086613 182.592796 
L 157.516347 186.193541 
L 161.323338 189.847428 
L 165.891892 193.855462 
L 170.465641 197.551977 
L 175.048463 201.014665 
L 181.177334 205.345325 
L 187.331663 209.433817 
L 193.514792 213.34024 
L 201.677937 218.260049 
L 212.653072 224.557505 
L 222.943202 230.227171 
L 236.953602 237.682658 
L 249.52079 244.1843 
L 249.52079 244.1843 
" clip-path="url(#p07cd08d72e)" style="fill: none; stroke: #00bfbf"/>
    <path d="M 147.58676 139.708369 
L 149.618975 145.869469 
L 151.615211 151.125516 
L 153.584651 155.687132 
L 155.533883 159.705621 
L 157.853074 163.967407 
L 160.156199 167.747158 
L 162.828519 171.675726 
L 165.489951 175.199356 
L 168.144257 178.404883 
L 171.55048 182.146429 
L 174.953565 185.556565 
L 178.734927 189.044756 
L 183.276807 192.899836 
L 188.20676 196.767989 
L 193.531012 200.660905 
L 200.404255 205.348518 
L 207.698311 210.020316 
L 218.528334 216.535086 
L 229.462641 222.751759 
L 240.111242 228.564174 
L 254.477001 236.138882 
L 263.758984 240.90591 
L 263.758984 240.90591 
" clip-path="url(#p07cd08d72e)" style="fill: none; stroke: #00bfbf"/>
    <path d="M 162.141094 130.854941 
L 164.145959 137.252843 
L 166.118391 142.697895 
L 168.067031 147.421695 
L 169.997619 151.575059 
L 172.296683 155.971689 
L 174.581613 159.863308 
L 177.23464 163.900276 
L 179.878279 167.509163 
L 182.892526 171.229424 
L 185.902608 174.605701 
L 189.66324 178.441235 
L 193.425466 181.953784 
L 197.568826 185.519073 
L 202.097809 189.131422 
L 207.017673 192.793726 
L 213.095501 197.024647 
L 219.966703 201.514463 
L 228.803412 206.94172 
L 238.097394 212.343559 
L 246.294161 216.91654 
L 256.925074 222.649533 
L 271.668379 230.320141 
L 277.704744 233.390138 
L 277.704744 233.390138 
" clip-path="url(#p07cd08d72e)" style="fill: none; stroke: #00bfbf"/>
    <path d="M 176.386715 120.681633 
L 177.970951 126.105019 
L 179.924602 131.953767 
L 181.855939 136.996738 
L 183.770707 141.415047 
L 186.05218 146.067367 
L 188.320821 150.165348 
L 190.580369 153.826234 
L 193.208604 157.655874 
L 195.831496 161.111362 
L 198.825447 164.688723 
L 202.192272 168.343979 
L 205.934706 172.046052 
L 209.681364 175.448228 
L 214.561658 179.521826 
L 219.455915 183.29713 
L 224.74492 187.101356 
L 230.435192 190.950235 
L 237.680754 195.566871 
L 248.05537 201.764542 
L 258.527496 207.674956 
L 267.921737 212.761896 
L 280.577615 219.375202 
L 291.375223 224.859348 
L 291.375223 224.859348 
" clip-path="url(#p07cd08d72e)" style="fill: none; stroke: #00bfbf"/>
    <path d="M 190.368321 109.818691 
L 191.928995 115.495558 
L 193.856932 121.604291 
L 195.765871 126.862386 
L 197.660849 131.463619 
L 199.921221 136.298546 
L 202.171067 140.551481 
L 204.413537 144.339438 
L 207.02368 148.296648 
L 209.629881 151.851855 
L 212.606365 155.534047 
L 215.582748 158.880367 
L 218.933297 162.332193 
L 222.660871 165.854262 
L 226.769173 169.432434 
L 231.262564 173.052678 
L 236.899007 177.25867 
L 243.316468 181.698755 
L 249.767889 185.884286 
L 258.553936 191.240221 
L 267.023165 196.125902 
L 279.461032 202.945727 
L 290.464099 208.723799 
L 304.781144 215.983367 
L 304.781144 215.983367 
" clip-path="url(#p07cd08d72e)" style="fill: none; stroke: #00bfbf"/>
    <path d="M 204.108494 98.409047 
L 205.644095 104.374054 
L 207.544807 110.78138 
L 209.43016 116.292835 
L 211.304229 121.102284 
L 213.542413 126.14916 
L 215.772435 130.573636 
L 217.997087 134.51363 
L 220.588292 138.614887 
L 223.177234 142.294722 
L 226.135483 146.089803 
L 229.095004 149.533729 
L 232.798396 153.449408 
L 236.879559 157.363127 
L 240.598137 160.644074 
L 245.819843 164.886953 
L 251.061936 168.815725 
L 257.457191 173.265617 
L 265.40558 178.398648 
L 271.881085 182.342066 
L 279.933215 187.007907 
L 287.270287 191.090677 
L 301.704489 198.757776 
L 314.746139 205.388409 
L 317.932197 206.974022 
L 317.932197 206.974022 
" clip-path="url(#p07cd08d72e)" style="fill: none; stroke: #00bfbf"/>
    <path d="M 217.624535 86.451822 
L 219.133157 92.748178 
L 221.004701 99.505344 
L 222.864681 105.299779 
L 224.716429 110.351059 
L 226.562315 114.811976 
L 228.772071 119.538139 
L 230.978199 123.726182 
L 233.182365 127.483288 
L 235.753058 131.420296 
L 238.324305 134.980118 
L 241.264988 138.665384 
L 244.209156 142.030525 
L 247.526718 145.503957 
L 251.590727 149.388001 
L 255.666204 152.96179 
L 259.754255 156.287697 
L 264.229246 159.69313 
L 269.846752 163.684259 
L 275.869196 167.690057 
L 283.063242 172.193319 
L 290.304948 176.481837 
L 299.522382 181.677594 
L 312.718384 188.731786 
L 330.837726 197.911673 
L 330.837726 197.911673 
" clip-path="url(#p07cd08d72e)" style="fill: none; stroke: #00bfbf"/>
    <path d="M 230.932673 73.872895 
L 232.411904 80.552673 
L 234.251691 87.711174 
L 236.084216 93.839489 
L 237.911822 99.170448 
L 239.736197 103.86978 
L 241.922927 108.842043 
L 244.108412 113.235521 
L 246.658139 117.781993 
L 249.209167 121.834442 
L 252.127548 125.98256 
L 255.050137 129.719728 
L 257.977777 133.129843 
L 261.278261 136.645391 
L 264.95477 140.23987 
L 269.380659 144.196436 
L 274.193716 148.144124 
L 278.654296 151.541335 
L 284.254823 155.531584 
L 291.389961 160.256807 
L 298.951639 164.939347 
L 309.245461 170.911003 
L 320.02702 176.805942 
L 329.356668 181.689238 
L 341.530815 187.832952 
L 343.507537 188.812064 
L 343.507537 188.812064 
" clip-path="url(#p07cd08d72e)" style="fill: none; stroke: #00bfbf"/>
   </g>
  </g>
 </g>
 <defs>
  <clipPath id="p07cd08d72e">
   <rect x="103.104" y="41.472" width="266.112" height="266.112"/>
  </clipPath>
 </defs>
</svg>
